<?xml version="1.0" standalone="no"?>
<!DOCTYPE svg PUBLIC "-//W3C//DTD SVG 20010904//EN"
 "http://www.w3.org/TR/2001/REC-SVG-20010904/DTD/svg10.dtd">
<svg version="1.0" xmlns="http://www.w3.org/2000/svg"
 width="3016.000000pt" height="3016.000000pt" viewBox="0 0 3016.000000 3016.000000"
 preserveAspectRatio="xMidYMid meet">
<metadata>
Created by potrace 1.11, written by Peter Selinger 2001-2013
</metadata>
<g transform="translate(0.000000,3016.000000) scale(0.100000,-0.100000)"
fill="#000000" stroke="none">
<path d="M26250 25241 l0 -298 -27 -6 c-16 -3 -2158 -499 -4761 -1101 -2604
-603 -4738 -1096 -4743 -1096 -5 0 -9 124 -9 290 0 187 -4 290 -10 290 -6 0
-10 -105 -10 -294 l0 -294 -42 -10 c-24 -6 -608 -141 -1298 -301 -1034 -239
-1361 -310 -1860 -406 -660 -127 -1328 -285 -1650 -390 -132 -44 -1260 -308
-5697 -1335 -3043 -704 -5537 -1280 -5543 -1280 -6 0 -10 103 -10 290 0 187
-4 290 -10 290 -6 0 -10 -105 -10 -295 l0 -295 -23 -5 c-103 -24 -541 -125
-544 -125 -1 0 -3 -4 -3 -10 0 -17 28 -12 295 50 142 33 262 60 267 60 4 0 7
-2717 5 -6037 -3 -5894 -3 -6058 -25 -6887 -11 -467 -23 -849 -24 -850 -2 -1
-115 -28 -253 -60 -137 -32 -254 -61 -258 -66 -27 -26 27 -15 541 105 l22 5 0
-285 c0 -183 4 -285 10 -285 6 0 10 103 10 288 l0 287 4847 1125 4848 1125 5
-552 c4 -481 7 -554 20 -568 10 -9 133 -42 300 -80 l285 -65 305 71 c168 39
315 77 328 85 l22 14 0 695 c0 382 3 695 6 695 3 0 642 148 1419 330 777 181
1417 330 1422 330 4 0 39 -65 77 -144 121 -256 288 -453 484 -572 41 -25 82
-54 91 -65 13 -16 89 -36 376 -100 520 -114 579 -124 723 -111 259 24 439 89
671 245 105 70 358 291 462 404 30 33 91 118 135 189 174 275 315 571 385 811
23 76 42 139 43 141 2 1 162 38 357 82 195 44 364 82 377 85 l22 5 0 -588 c0
-548 1 -590 18 -605 9 -8 109 -37 222 -62 l205 -47 314 73 c173 41 320 80 328
87 11 11 13 138 13 705 l0 692 398 89 c218 49 403 91 410 94 9 3 12 -108 12
-536 0 -500 1 -541 18 -560 13 -16 80 -37 277 -88 143 -36 267 -72 276 -80 20
-18 58 -18 78 0 9 7 144 44 301 80 157 37 292 74 300 82 13 13 16 110 20 712
l5 697 30 3 30 3 195 -476 c107 -262 200 -481 206 -486 6 -5 175 -46 374 -91
l363 -82 81 17 c309 64 830 183 844 193 16 11 17 69 22 716 l5 703 690 157
c380 86 702 160 718 163 l27 7 0 -550 c0 -428 3 -552 13 -560 6 -6 145 -44
308 -85 l296 -74 313 73 c172 41 319 79 327 85 10 9 13 145 15 707 l3 696 94
27 c93 27 136 49 95 49 -16 0 -101 -22 -173 -45 l-21 -6 0 1020 0 1020 38 10
c20 6 242 58 492 116 510 118 516 120 524 141 10 25 7 808 -3 823 -9 14 -540
140 -591 141 -20 0 -759 -167 -822 -186 -29 -9 -25 379 7 707 13 140 28 367
33 504 l9 250 -34 189 -33 189 0 432 0 431 287 67 c267 62 318 77 296 90 -4 2
-129 -24 -278 -59 -148 -35 -278 -63 -287 -64 -17 0 -18 193 -18 3925 l0 3924
38 10 c20 5 147 35 282 66 289 66 276 63 263 76 -7 7 -101 -11 -292 -56 -155
-36 -284 -65 -286 -65 -3 0 -5 133 -5 295 0 190 -4 295 -10 295 -6 0 -10 -106
-10 -299z m-5 -8179 c-2 -3 -48 -15 -100 -27 l-97 -23 -20 46 c-11 26 -54 128
-95 227 -91 218 -84 203 -251 500 -167 296 -415 662 -662 980 -165 212 -228
282 -536 598 -417 429 -699 677 -1114 981 -541 397 -1095 706 -1870 1043 -289
126 -404 170 -710 271 -812 268 -1435 424 -2130 531 -511 79 -1050 128 -1510
136 -173 3 -343 8 -377 11 l-63 6 0 183 0 184 93 21 c50 12 2196 508 4767
1104 l4675 1082 3 -3925 c1 -2158 0 -3926 -3 -3929z m-9555 5459 l0 -179 -132
-6 c-73 -3 -257 -8 -408 -11 -407 -8 -1016 -50 -1339 -91 -150 -19 -275 -34
-276 -32 -4 4 2113 496 2138 497 16 1 17 -14 17 -178z m0 -2607 l0 -2296 -32
5 c-44 8 -643 -133 -666 -157 -16 -15 -17 -92 -22 -943 l-5 -925 -284 723
c-156 398 -291 731 -300 741 -16 16 -547 138 -603 138 -14 0 -223 -47 -464
-105 -240 -58 -438 -105 -440 -105 -1 0 -10 -7 -18 -16 -14 -14 -16 -222 -16
-2143 0 -1696 3 -2131 13 -2144 8 -12 94 -39 266 -83 140 -36 270 -74 289 -84
19 -11 38 -18 41 -17 3 2 22 11 41 20 19 10 158 46 309 81 150 35 278 69 285
76 8 8 12 225 16 788 l5 776 220 -553 c167 -423 224 -555 240 -562 11 -5 180
-45 375 -88 l355 -80 180 40 c99 22 188 42 198 45 14 4 17 -1 17 -29 0 -28 -3
-33 -22 -33 -23 1 -23 0 -32 -214 -9 -216 -9 -216 23 -396 27 -157 31 -203 31
-362 0 -125 -3 -182 -11 -182 -6 0 -130 27 -276 60 l-265 60 -122 -10 c-209
-18 -436 -108 -675 -270 -189 -128 -406 -363 -568 -616 -173 -268 -314 -566
-390 -819 -72 -241 -143 -711 -143 -950 0 -215 68 -654 121 -784 17 -40 27
-77 22 -81 -4 -4 -379 -94 -833 -199 -454 -106 -834 -195 -845 -198 -15 -4
-13 0 8 17 16 13 69 35 117 51 98 30 269 127 415 234 231 169 447 539 495 845
30 190 27 347 -9 512 -46 208 -105 348 -203 482 -216 294 -328 392 -573 500
-71 32 -137 62 -145 67 -71 43 -239 121 -350 161 -121 44 -147 50 -266 59
-245 19 -324 8 -1142 -161 -616 -127 -730 -154 -744 -171 -17 -20 -18 -111
-18 -1590 0 -863 -3 -1569 -7 -1569 -3 0 -2170 -502 -4815 -1116 -2645 -614
-4811 -1114 -4812 -1113 -2 2 5 364 15 804 l17 800 42 410 c63 624 146 1106
356 2065 l164 755 212 670 211 670 312 760 c281 681 335 804 522 1185 314 637
560 1065 996 1730 343 525 359 546 808 1130 411 533 492 633 784 960 227 254
454 493 748 788 368 370 472 466 812 761 330 285 467 395 895 717 659 496 923
665 1450 929 774 387 1844 817 2640 1060 674 206 1116 314 1930 470 606 117
749 142 1120 189 498 64 1008 101 1575 115 193 4 367 9 388 9 l37 2 0 -2296z
m1120 2236 c201 -22 556 -66 790 -96 391 -51 453 -62 775 -136 1153 -264 1829
-501 2750 -960 268 -134 368 -191 615 -348 162 -103 412 -269 555 -369 353
-247 603 -468 1089 -966 295 -301 396 -413 547 -600 328 -408 677 -987 870
-1445 55 -129 98 -239 96 -244 -2 -5 -1083 -260 -2403 -566 l-2399 -556 -3
293 c-2 251 -4 293 -17 293 -13 0 -15 -41 -15 -297 l0 -298 -708 -163 c-681
-158 -714 -165 -908 -183 -197 -18 -265 -28 -318 -48 l-26 -10 -2 261 c-2 198
-6 262 -15 266 -10 3 -13 -55 -13 -267 l0 -271 -27 -11 c-16 -6 -54 -17 -86
-25 -31 -9 -91 -31 -132 -49 -59 -27 -233 -71 -812 -205 -406 -94 -748 -173
-760 -177 l-23 -5 0 1255 c0 1035 -2 1256 -13 1266 -10 8 -479 121 -503 121
-2 0 -4 1034 -4 2298 l0 2297 367 -8 c330 -7 406 -12 733 -47z m-6500 -697
c-8 -3 -276 -98 -595 -210 -551 -195 -600 -214 -975 -385 -643 -294 -1104
-529 -1460 -746 -281 -172 -344 -216 -813 -570 -468 -352 -540 -411 -896 -726
-226 -201 -549 -502 -780 -727 -331 -323 -453 -450 -767 -802 -343 -384 -409
-465 -826 -1005 -447 -578 -459 -595 -804 -1122 -428 -653 -670 -1073 -1013
-1759 -217 -433 -244 -493 -533 -1196 l-305 -740 -211 -680 -212 -680 -165
-755 c-186 -849 -285 -1403 -335 -1880 l-28 -265 -1 5887 -1 5887 93 21 c50
12 2459 570 5352 1240 2893 670 5267 1218 5275 1218 13 0 13 0 0 -5z m5364
-3952 c16 -6 9 -16 -50 -69 -61 -55 -72 -62 -99 -56 -16 3 -32 8 -34 10 -3 3
22 31 54 64 60 61 82 69 129 51z m-169 -61 l-50 -50 -43 12 -44 13 25 23 c24
22 98 49 142 51 15 1 9 -10 -30 -49z m280 40 c16 0 13 -7 -19 -39 -29 -30 -53
-43 -99 -54 -34 -9 -63 -14 -65 -13 -1 2 25 29 59 60 47 44 67 56 83 52 12 -3
30 -6 41 -6z m99 -31 c5 -4 -11 -13 -35 -19 -24 -6 -53 -14 -64 -17 -17 -4
-15 0 9 26 23 24 35 29 55 24 14 -3 30 -9 35 -14z m-536 -15 c-11 -11 -23 -14
-35 -9 -16 7 -15 9 7 15 40 12 45 11 28 -6z m772 -2118 c0 -1948 -1 -2055 -17
-2060 -99 -28 -767 -166 -773 -160 -4 5 -281 691 -615 1524 -334 833 -612
1526 -618 1540 -17 36 -61 49 -87 25 -20 -18 -20 -25 -22 -1719 l-3 -1701
-215 -50 c-118 -28 -227 -54 -242 -58 l-28 -7 0 2059 0 2059 93 21 c50 12 232
54 402 95 209 49 312 69 316 62 3 -6 277 -702 609 -1546 331 -844 610 -1543
618 -1552 17 -21 62 -24 80 -6 9 9 12 404 12 1715 l0 1703 23 5 c161 40 436
104 450 104 16 1 17 -103 17 -2053z m-980 2030 c0 -2 -11 -13 -25 -26 l-25
-23 0 30 c0 27 3 30 25 25 14 -2 25 -5 25 -6z m97 -20 c1 -1 -31 -35 -72 -76
l-75 -74 0 44 c0 37 6 50 37 82 33 34 41 37 73 32 19 -4 36 -7 37 -8z m-9
-163 l-133 -133 -3 51 -3 52 91 92 92 92 44 -10 45 -11 -133 -133z m229 113
c1 -1 -81 -85 -182 -186 l-185 -185 0 45 c0 44 1 46 147 192 145 145 148 148
183 142 19 -4 36 -7 37 -8z m47 -12 c42 -16 16 -53 -196 -272 l-213 -220 -3
51 -3 51 198 198 c109 109 199 198 200 198 1 0 8 -3 17 -6z m-196 -401 l-213
-213 -3 40 c-3 41 -3 42 210 262 l213 221 3 -48 3 -49 -213 -213z m-1508 221
c0 -3 -32 -41 -72 -84 -64 -70 -78 -80 -123 -90 -27 -7 -59 -14 -70 -17 -11
-3 18 34 69 85 63 64 100 94 125 100 43 12 71 14 71 6z m124 -27 c5 -2 -16
-24 -46 -50 -42 -36 -69 -50 -116 -61 l-62 -14 65 73 65 73 43 -9 c23 -5 46
-11 51 -12z m-359 -87 c-49 -50 -97 -92 -105 -95 -8 -3 -27 -1 -43 3 l-27 7
73 73 c74 74 78 76 187 101 2 1 -36 -40 -85 -89z m464 63 c11 -9 -27 -31 -71
-42 -71 -17 -75 -14 -38 24 30 31 38 34 70 29 19 -4 37 -8 39 -11z m1279 -305
l-213 -221 -3 48 -3 49 213 213 213 213 3 -40 c3 -41 3 -42 -210 -262z m9941
-60 c-1 -262 -4 -350 -11 -318 -10 48 -162 594 -173 622 -5 13 8 20 77 36 46
11 89 20 96 21 9 1 12 -77 11 -361z m-11819 287 c-61 -61 -67 -65 -100 -59
-52 9 -54 16 -15 55 31 29 113 62 170 68 5 1 -20 -28 -55 -64z m-150 -10 c-24
-26 -63 -32 -90 -15 -12 7 -10 11 10 18 33 13 61 19 84 21 18 1 18 -1 -4 -24z
m11650 -21 c6 -15 46 -149 89 -298 55 -186 96 -354 131 -536 l52 -265 -6 -265
c-10 -364 -51 -747 -114 -1055 l-47 -229 -841 -196 c-463 -107 -848 -201 -858
-209 -14 -12 -16 -54 -16 -411 0 -335 2 -399 15 -410 7 -6 143 -45 300 -86
l285 -74 216 50 c118 28 222 50 230 50 11 0 14 -25 14 -140 l0 -140 -113 -177
c-134 -212 -415 -576 -583 -758 -171 -185 -553 -552 -654 -629 l-85 -65 -5
1205 c-5 1099 -6 1207 -21 1218 -9 6 -149 40 -311 75 l-294 64 -309 -73 c-171
-40 -318 -79 -327 -88 -17 -14 -18 -72 -18 -941 l-1 -926 -290 725 c-160 399
-296 731 -303 738 -7 7 -145 42 -307 78 l-294 64 -170 -40 c-93 -23 -178 -43
-187 -46 -17 -5 -18 11 -18 240 l0 246 23 5 c12 3 136 32 275 64 139 32 256
61 259 65 26 26 -80 6 -534 -101 l-23 -5 0 360 c0 283 3 367 14 393 7 19 17
90 20 159 6 109 4 134 -14 195 -19 66 -20 96 -20 576 l0 505 2398 556 c1318
306 2405 557 2415 557 10 1 22 -10 27 -25z m-9624 -333 l-216 -216 0 47 0 47
213 219 212 220 3 -51 3 -51 -215 -215z m-2266 253 c2 -3 -17 -26 -43 -52
l-47 -47 0 51 c0 28 3 54 7 58 7 7 73 -1 83 -10z m96 -22 c8 -4 -23 -44 -87
-112 l-98 -105 -1 50 c0 47 2 52 62 112 61 62 93 76 124 55z m123 -28 c3 -3
-66 -75 -152 -162 l-157 -157 0 49 c0 48 1 49 113 167 l112 119 40 -5 c21 -3
41 -8 44 -11z m94 -24 c4 -4 -83 -101 -195 -217 l-203 -210 -3 50 -3 51 172
172 c153 153 176 173 199 167 14 -3 29 -9 33 -13z m2131 -123 c-21 -23 -118
-124 -216 -225 l-178 -183 0 53 0 53 213 213 212 212 3 -40 c3 -36 -2 -47 -34
-83z m-2314 -211 l-221 -221 3 47 c3 46 6 49 218 269 l215 223 3 -49 3 -49
-221 -220z m2135 -105 l-216 -216 3 47 c3 46 6 49 213 264 l210 217 3 -48 3
-49 -216 -215z m-2132 -27 l-218 -226 -3 48 -3 48 218 218 218 218 3 -40 c3
-41 3 -41 -215 -266z m2135 -106 l-213 -220 -3 48 -3 48 213 213 213 213 3
-40 c3 -41 2 -42 -210 -262z m-2137 -32 l-221 -221 0 48 0 47 218 225 217 224
3 -51 3 -52 -220 -220z m2135 -105 l-216 -216 0 48 0 47 213 219 212 220 3
-52 3 -51 -215 -215z m-1972 146 c-32 -34 -131 -137 -221 -229 l-163 -166 0
51 0 52 218 218 217 217 3 -41 c3 -38 -1 -46 -54 -102z m2135 -105 c-29 -32
-126 -132 -216 -224 l-163 -166 0 51 0 52 213 213 212 212 3 -41 c3 -37 -1
-46 -49 -97z m-2298 -196 l-221 -221 0 45 0 45 218 224 217 225 3 -49 3 -49
-220 -220z m2135 -105 l-216 -216 0 45 c0 45 0 45 213 264 l212 220 3 -49 3
-49 -215 -215z m-2133 -27 l-218 -225 -3 47 -3 48 218 218 218 218 3 -40 c3
-40 2 -41 -215 -266z m2135 -105 l-213 -220 -3 47 -3 48 213 213 213 213 3
-40 c3 -40 2 -41 -210 -261z m-2135 -31 l-218 -218 -3 45 -3 45 218 225 218
225 3 -52 3 -52 -218 -218z m2135 -110 l-213 -221 -3 52 -3 52 213 219 213
219 3 -50 3 -50 -213 -221z m-1197 259 c-8 -8 -11 -3 -11 19 1 25 2 27 11 11
8 -14 8 -22 0 -30z m5948 -404 c-1 -247 -4 -438 -7 -426 -4 12 -43 67 -88 121
-102 124 -193 189 -402 289 -130 62 -175 78 -286 102 -114 26 -332 56 -450 64
-25 1 183 54 590 148 346 81 632 147 637 148 4 1 7 -200 6 -446z m-6798 219
c-71 -75 -170 -177 -220 -227 l-91 -90 0 50 0 50 218 218 217 217 3 -40 c3
-40 0 -44 -127 -178z m884 128 c5 -19 0 -31 -19 -50 l-26 -23 0 44 c0 69 30
88 45 29z m1319 -163 c-32 -34 -122 -128 -201 -209 -125 -127 -145 -144 -153
-128 -6 10 -10 26 -10 34 0 8 93 112 208 230 l207 215 3 -41 c3 -37 -1 -45
-54 -101z m-2293 -191 l-221 -221 0 45 0 46 218 224 217 224 3 -49 3 -49 -220
-220z m977 192 l-43 -50 -3 47 c-3 43 0 52 30 82 l33 34 13 -31 c12 -30 11
-33 -30 -82z m73 -25 l12 -37 -64 -60 -64 -60 -3 48 c-3 45 0 51 45 100 26 29
51 51 55 49 3 -2 12 -20 19 -40z m1117 -240 l-183 -183 -13 31 c-15 36 -32 16
248 302 l125 127 3 -47 3 -47 -183 -183z m-2165 -58 l-218 -225 -3 52 -3 52
218 218 218 218 3 -45 3 -45 -218 -225z m1086 203 c11 -32 10 -33 -74 -118
l-85 -85 0 50 c0 48 2 52 67 117 37 38 71 68 74 68 4 0 12 -14 18 -32z m1099
-259 l-163 -170 -17 38 -17 38 177 178 177 177 3 -45 3 -45 -163 -171z m-2185
-81 l-218 -218 -3 45 -3 45 218 226 218 225 3 -52 3 -53 -218 -218z m5840 272
c224 -33 348 -66 487 -132 190 -90 282 -154 362 -255 61 -77 71 -96 104 -200
l36 -116 -11 -111 c-7 -80 -20 -140 -46 -217 -35 -102 -38 -108 -143 -230
-173 -200 -289 -306 -432 -395 -260 -161 -604 -317 -835 -377 -90 -24 -320
-69 -402 -80 l-33 -4 0 99 c0 54 4 98 8 98 58 0 264 36 322 57 139 49 348 219
415 338 16 27 38 81 50 120 17 58 19 80 12 130 -7 52 -17 71 -70 141 -57 76
-69 85 -152 127 -50 24 -135 57 -190 72 -92 25 -111 27 -230 22 -71 -2 -138
-8 -147 -12 -17 -7 -18 17 -18 423 l0 430 63 21 c79 26 155 38 337 55 214 20
359 19 513 -4z m-4717 -26 l15 -36 -103 -98 -103 -97 -3 45 c-3 45 -3 46 85
134 48 48 89 88 91 88 2 0 10 -16 18 -36z m1080 -283 l-145 -145 -15 34 -14
34 157 163 156 163 3 -52 3 -52 -145 -145z m2694 -201 l0 -430 -23 0 c-30 0
-231 -68 -327 -111 -181 -80 -359 -237 -479 -421 -55 -85 -66 -110 -81 -184
-17 -82 -17 -88 1 -159 27 -104 75 -180 166 -264 68 -62 90 -75 176 -106 54
-20 144 -44 200 -54 62 -10 94 -20 82 -23 -11 -4 -82 -21 -157 -38 -76 -17
-138 -36 -138 -41 0 -15 31 -11 226 35 107 25 225 46 272 48 l82 5 -2 -266 -3
-266 -220 -53 c-143 -34 -224 -59 -232 -69 -9 -12 -13 -66 -13 -184 0 -151 -2
-168 -17 -173 -10 -3 -360 -84 -778 -181 -418 -97 -767 -178 -776 -181 -48
-14 -180 335 -235 616 l-36 185 9 207 8 207 -22 6 c-19 4 -23 12 -23 44 l0 38
238 52 c130 29 243 58 250 63 9 8 12 107 12 435 l0 425 74 86 c264 308 648
616 1066 853 90 51 243 129 339 174 97 45 196 92 221 105 24 12 65 28 90 35
25 7 46 13 48 14 1 0 2 -192 2 -429z m-4829 182 c-82 -86 -181 -188 -220 -227
l-71 -69 0 49 0 50 218 218 217 217 3 -40 c3 -41 1 -43 -147 -198z m1096 209
c10 -28 7 -32 -113 -152 l-124 -124 0 50 -1 50 108 102 c59 56 110 102 113
103 3 0 11 -13 17 -29z m3238 -22 c-181 -96 -431 -242 -495 -289 -43 -32 -113
-78 -156 -101 -96 -52 -362 -276 -556 -468 l-138 -136 0 347 0 348 28 7 c76
20 1329 311 1342 312 8 1 -3 -8 -25 -20z m-3200 -79 c5 -22 -12 -42 -135 -165
l-140 -140 0 45 c0 44 2 47 127 172 70 70 131 124 134 120 4 -4 10 -18 14 -32z
m1018 -192 l-128 -129 -13 32 -13 32 138 139 138 138 3 -41 c3 -42 2 -43 -125
-171z m-2223 -122 l-221 -221 3 48 c3 48 3 49 218 270 l215 222 3 -49 3 -50
-221 -220z m1240 228 l12 -37 -161 -161 -161 -161 0 55 0 55 142 142 c79 79
146 143 150 143 3 0 12 -16 18 -36z m1003 -226 l-108 -109 -17 38 -17 38 122
123 122 122 3 -52 3 -52 -108 -108z m-2030 88 c-4 -7 -104 -112 -220 -232
l-213 -218 0 54 0 55 218 218 217 217 3 -40 c2 -22 0 -46 -5 -54z m1065 44
c10 -28 7 -33 -166 -214 l-177 -184 -3 51 -3 51 163 163 c89 90 166 163 169
163 4 0 12 -13 17 -30z m40 -99 c10 -27 5 -34 -174 -212 l-183 -183 -11 29
c-6 15 -9 31 -8 36 7 19 351 368 358 364 4 -3 13 -18 18 -34z m945 -146 l-88
-95 -17 37 -17 38 102 103 102 103 3 -46 c3 -45 2 -47 -85 -140z m-2260 -147
l-218 -218 -3 40 c-3 40 -2 41 215 266 l218 226 3 -48 3 -48 -218 -218z m1355
192 c10 -29 8 -32 -174 -206 -101 -97 -186 -175 -187 -173 -2 2 -8 15 -14 29
-10 24 -2 34 170 207 99 100 184 180 188 177 4 -2 12 -17 17 -34z m925 -166
l-68 -75 -17 37 -16 38 81 87 82 88 3 -49 c3 -49 2 -52 -65 -126z m-2242 -122
c-98 -103 -198 -205 -220 -227 l-41 -39 0 49 0 50 218 218 217 217 3 -40 c3
-41 2 -43 -177 -228z m1359 178 c0 -15 -356 -378 -363 -370 -2 3 -10 20 -17
38 -13 32 -12 35 21 66 19 18 101 97 183 176 139 135 149 143 162 125 8 -10
14 -26 14 -35z m10678 -345 c-2 -2 -21 -6 -44 -9 l-41 -7 41 176 41 177 3
-167 c1 -93 1 -169 0 -170z m-9728 282 c0 -38 -6 -50 -52 -101 l-51 -58 -14
32 c-13 32 -13 33 49 100 35 38 64 69 66 69 1 1 2 -18 2 -42z m-2349 -291
l-221 -221 0 46 0 46 218 225 217 225 3 -50 3 -51 -220 -220z m1257 77 l-183
-183 -15 30 -14 31 184 184 184 184 13 -31 14 -32 -183 -183z m207 120 l16
-37 -183 -183 -183 -184 -17 38 -17 38 182 183 c100 100 183 182 184 182 2 0
10 -17 18 -37z m854 -120 l-33 -33 -13 22 c-19 35 -16 45 30 95 l42 46 3 -48
c3 -42 0 -52 -29 -82z m-2124 -5 c-15 -18 -114 -122 -221 -232 l-194 -199 0
54 0 54 218 218 217 217 3 -40 c3 -32 -2 -47 -23 -72z m1310 21 c7 -30 0 -39
-171 -210 -98 -99 -182 -179 -186 -179 -3 0 -10 14 -13 31 -7 30 0 39 171 210
98 99 182 179 186 179 3 0 10 -14 13 -31z m11315 -94 c-83 -84 -94 -90 -185
-111 -27 -6 -21 3 54 79 74 75 91 87 140 100 31 8 60 15 66 16 5 1 -29 -37
-75 -84z m185 79 c27 -11 -89 -122 -140 -135 -22 -6 -49 -13 -60 -16 -11 -3
14 30 60 76 78 79 99 90 140 75z m-10669 -112 c-14 -14 -17 -12 -30 19 -14 33
-13 35 12 62 l27 29 3 -48 c2 -32 -2 -52 -12 -62z m10783 82 c11 -11 -55 -63
-87 -69 -21 -3 -48 -9 -62 -12 -22 -5 -18 1 25 46 46 48 53 52 85 46 19 -4 37
-9 39 -11z m-13116 -306 l-218 -218 -3 40 c-3 41 -3 41 215 267 l218 226 3
-48 3 -49 -218 -218z m1428 114 c-66 -70 -148 -155 -183 -190 l-64 -62 -13 36
-13 37 183 184 184 183 13 -31 13 -31 -120 -126z m11206 100 c-77 -78 -95 -90
-139 -101 -28 -6 -52 -10 -54 -8 -2 2 34 40 79 84 79 79 107 95 197 112 2 1
-35 -39 -83 -87z m566 78 c32 -1 3 -16 -48 -25 l-40 -7 20 21 c10 12 25 19 33
16 7 -3 23 -5 35 -5z m-7902 -26 c112 -24 213 -88 264 -167 35 -53 40 -69 39
-117 -1 -112 -97 -237 -243 -320 -118 -66 -200 -96 -291 -109 -47 -6 -97 -14
-112 -17 l-28 -6 0 171 0 170 45 20 c25 11 45 22 45 26 0 3 -8 32 -17 66 -11
42 -21 58 -30 54 -7 -3 -20 -8 -28 -11 -13 -5 -15 11 -15 114 l0 120 48 10
c76 16 242 14 323 -4z m7179 -89 c-85 -85 -96 -92 -190 -110 -34 -7 -33 -5 49
79 78 79 89 86 145 99 34 8 65 15 71 16 5 0 -29 -37 -75 -84z m-7580 -48 l0
-123 -45 -22 c-25 -12 -74 -46 -108 -75 -34 -28 -75 -62 -91 -74 -22 -18 -31
-37 -42 -90 -8 -38 -16 -78 -19 -90 -4 -17 -1 -23 12 -24 17 -1 17 -2 1 -6
-22 -6 -22 -6 1 -51 35 -67 79 -99 187 -135 l99 -34 3 -100 3 -100 -47 -7
c-131 -18 -331 11 -455 65 -41 18 -108 58 -150 88 -80 59 -94 81 -117 187 -25
116 57 306 177 413 74 65 218 164 301 206 43 23 243 89 283 94 4 1 7 -54 7
-122z m7397 5 c-79 -79 -93 -89 -140 -99 -29 -6 -53 -10 -54 -9 -1 1 35 39 81
85 82 82 103 94 196 110 2 1 -35 -39 -83 -87z m-10714 27 l15 -36 -184 -184
c-101 -101 -185 -181 -187 -179 -2 3 -9 20 -16 37 -13 32 -12 33 49 100 131
143 295 309 302 304 3 -4 13 -22 21 -42z m5303 -576 c-4 -4 -857 -202 -936
-217 -24 -5 1 12 79 54 146 79 457 279 495 319 17 17 35 31 41 31 6 0 21 13
33 29 11 16 45 55 75 87 64 69 181 242 199 293 11 31 13 -10 16 -278 1 -173 0
-316 -2 -318z m6544 308 c0 -296 -1 -320 -17 -325 -10 -2 -243 -57 -518 -121
-275 -64 -504 -121 -510 -126 -7 -7 -12 -607 -15 -1741 l-5 -1731 -240 -56
-240 -57 -3 1715 c-1 1247 -5 1718 -13 1728 -18 21 -49 16 -284 -38 -121 -28
-249 -57 -285 -64 -51 -11 -236 -53 -473 -109 -16 -4 -17 14 -15 317 l3 321
1295 302 c712 166 1301 302 1308 303 9 1 12 -69 12 -318z m-11080 272 c-1 -24
-2 -26 -11 -10 -5 9 -7 22 -4 27 10 17 15 11 15 -17z m9776 -72 c-70 -70 -96
-90 -125 -95 -20 -3 -47 -9 -61 -12 -19 -5 -5 14 59 79 74 76 91 87 140 100
31 8 60 15 66 16 5 1 -30 -39 -79 -88z m-12104 -209 c-110 -114 -209 -216
-221 -226 l-21 -19 0 49 0 49 218 218 217 217 3 -40 c3 -41 2 -42 -196 -248z
m11925 170 c-77 -78 -95 -90 -139 -101 -28 -6 -52 -10 -54 -8 -2 2 34 40 79
84 79 79 107 95 197 112 2 1 -35 -39 -83 -87z m-10499 -199 l-183 -183 -15 30
-14 31 184 185 185 184 13 -31 13 -32 -183 -184z m10342 162 c-85 -85 -96 -92
-190 -110 -34 -7 -33 -5 49 79 78 79 89 86 145 99 34 8 65 15 71 16 5 0 -29
-37 -75 -84z m-184 -44 c-79 -80 -94 -90 -140 -99 -28 -6 -52 -9 -53 -8 -1 1
35 39 81 85 82 82 103 94 196 110 2 1 -35 -39 -84 -88z m-11605 -245 l-221
-221 0 46 0 47 218 225 217 225 3 -51 3 -51 -220 -220z m11435 205 c-70 -70
-96 -90 -125 -95 -20 -3 -47 -9 -61 -12 -19 -5 -5 14 60 79 85 87 101 96 210
116 2 1 -35 -39 -84 -88z m-9776 29 c0 -16 -356 -377 -364 -369 -3 3 -9 16
-15 29 -9 23 4 38 172 208 162 162 183 180 195 165 6 -9 12 -24 12 -33z m9597
-68 c-77 -78 -95 -90 -139 -101 -28 -6 -52 -10 -54 -8 -2 2 34 40 79 84 79 79
107 95 197 112 2 1 -35 -39 -83 -87z m-157 -37 c-85 -85 -101 -94 -191 -111
-33 -6 -32 -5 49 78 77 78 88 86 145 100 34 9 66 16 72 17 5 0 -29 -37 -75
-84z m-9406 24 l15 -35 -184 -184 -184 -184 -16 39 -17 38 183 183 c101 101
184 182 186 181 1 -2 9 -19 17 -38z m-1510 -92 c-21 -23 -120 -127 -221 -230
l-183 -188 0 53 0 53 218 218 217 217 3 -40 c3 -36 -2 -47 -34 -83z m10731 23
c-84 -84 -93 -90 -140 -96 l-50 -6 81 82 c81 82 85 85 194 109 3 1 -36 -39
-85 -89z m-140 -21 c-66 -66 -72 -70 -105 -64 -19 4 -37 9 -39 11 -2 2 13 23
34 46 31 34 51 46 99 60 34 9 65 17 71 17 5 1 -22 -31 -60 -70z m-5875 -98 l0
-160 -76 26 c-66 22 -78 30 -89 57 -20 48 -3 113 38 149 49 43 109 87 119 87
4 0 8 -72 8 -159z m-3340 -117 l-185 -184 -13 31 -13 32 183 184 183 183 15
-30 14 -31 -184 -185z m9070 206 c-21 -26 -38 -39 -49 -36 -9 3 -29 8 -44 12
-24 5 -26 9 -15 20 11 10 99 40 131 43 5 1 -6 -17 -23 -39z m-10630 -314
l-221 -221 3 47 c3 45 6 49 218 269 l215 222 3 -48 3 -49 -221 -220z m1767
235 c10 -28 7 -32 -173 -212 -101 -101 -185 -181 -187 -179 -2 3 -8 16 -14 30
-10 24 -2 34 170 208 100 100 184 182 187 182 3 0 11 -13 17 -29z m8513 -10
c0 -6 -4 -13 -10 -16 -5 -3 -10 1 -10 9 0 9 5 16 10 16 6 0 10 -4 10 -9z m92
-20 c4 -4 -19 -33 -52 -66 l-60 -59 0 44 c0 57 39 103 79 93 14 -3 29 -9 33
-12z m106 -19 c20 -6 11 -18 -98 -127 l-120 -120 0 55 c0 54 0 55 72 127 74
75 88 81 146 65z m-10475 -319 l-218 -226 -3 49 -3 48 218 218 218 218 3 -40
c3 -41 3 -41 -215 -267z m1802 271 l15 -36 -183 -189 -182 -189 -18 42 -18 42
183 183 c101 101 184 183 185 183 2 0 9 -16 18 -36z m8787 17 c4 -4 -69 -83
-162 -176 l-170 -170 0 45 c0 44 2 47 137 182 121 121 140 137 163 131 14 -3
28 -9 32 -12z m95 -27 c2 -5 -93 -108 -211 -229 l-215 -220 0 50 -1 50 186
186 c168 168 189 186 212 180 14 -4 27 -11 29 -17z m-3797 -289 c0 -135 -3
-245 -7 -245 -5 0 -118 -27 -253 -59 -197 -48 -248 -63 -262 -81 -16 -20 -18
-45 -18 -220 l0 -198 -87 -21 c-246 -57 -713 -161 -722 -161 -7 0 -11 27 -11
70 0 61 -3 71 -22 84 -13 8 -117 34 -231 59 l-208 45 -70 -18 -69 -18 0 263 0
264 48 6 c236 32 342 58 562 138 207 75 268 91 770 208 300 70 553 128 563
128 16 1 17 -17 17 -244z m3610 -50 c-164 -164 -195 -191 -216 -187 -18 3 -24
10 -22 24 2 11 98 117 213 236 l210 217 3 -49 3 -50 -191 -191z m-8656 253
l14 -33 -161 -162 c-151 -152 -162 -161 -191 -156 -17 3 -33 7 -35 9 -3 3 349
374 356 374 2 0 9 -15 17 -32z m-1843 -312 l-221 -221 0 47 0 47 218 225 217
225 3 -51 3 -52 -220 -220z m9056 206 c-50 -50 -62 -58 -88 -54 -40 6 -42 13
-14 47 20 26 70 47 155 64 2 1 -22 -25 -53 -57z m161 50 c21 -7 18 -12 -46
-69 -65 -58 -72 -62 -107 -56 l-37 6 63 63 c63 64 77 70 127 56z m-7328 -62
c0 -8 -53 -71 -117 -139 l-118 -124 -44 8 -44 7 149 149 c133 133 150 147 162
132 6 -9 12 -24 12 -33z m7443 31 c16 -15 -51 -62 -109 -76 -33 -8 -62 -14
-66 -15 -3 0 19 25 50 55 50 48 61 54 87 49 17 -3 33 -9 38 -13z m-415 -27
c-23 -23 -30 -25 -69 -18 l-44 7 65 18 c36 9 67 18 70 18 2 1 -7 -11 -22 -25z
m519 3 c2 -3 -14 -7 -36 -11 -21 -3 -48 -9 -58 -13 -15 -5 -14 -2 5 19 20 22
28 25 54 17 17 -4 33 -10 35 -12z m1121 -218 l-133 -140 -40 6 c-21 3 -41 8
-44 11 -3 3 73 83 169 180 l175 174 3 -45 3 -45 -133 -141z m-10389 63 c-29
-32 -129 -134 -221 -229 l-168 -172 0 52 0 52 218 218 217 217 3 -41 c3 -37
-1 -46 -49 -97z m1761 48 c0 -9 -39 -54 -87 -102 -77 -76 -91 -86 -116 -81
-15 3 -30 9 -33 14 -3 5 43 59 102 119 105 108 108 110 121 88 7 -13 12 -30
13 -38z m7720 -2018 l0 -2059 -392 -86 c-215 -48 -393 -85 -395 -84 -1 2 -284
696 -629 1543 -344 846 -630 1545 -636 1552 -15 17 -58 15 -80 -5 -17 -15 -18
-82 -18 -1714 l0 -1698 -37 -10 c-67 -18 -425 -101 -434 -101 -5 0 -8 853 -7
2056 l3 2057 399 94 c219 51 400 92 401 91 1 -2 151 -381 334 -843 183 -462
341 -858 351 -880 10 -22 138 -341 285 -710 146 -368 273 -676 282 -682 24
-19 50 -16 73 7 20 20 20 33 20 1718 l0 1698 238 56 c130 31 238 57 240 57 1
1 2 -925 2 -2057z m-970 2022 c2 -3 -15 -24 -38 -47 l-42 -42 0 54 0 53 38 -7
c20 -4 39 -9 42 -11z m100 -23 c11 -4 -12 -32 -82 -100 l-98 -94 0 49 c0 46 3
52 57 106 58 59 67 62 123 39z m1823 -173 c-81 -81 -90 -88 -118 -82 -16 3
-32 8 -34 10 -2 2 50 60 115 129 l119 127 3 -48 3 -47 -88 -89z m-1721 154
c15 -6 -11 -36 -132 -157 l-150 -150 0 52 0 51 113 106 c109 103 128 114 169
98z m-8881 -316 l-221 -221 0 45 0 45 218 224 217 225 3 -49 3 -49 -220 -220z
m1958 287 c11 -25 9 -29 -46 -85 -52 -52 -61 -58 -88 -52 -16 3 -32 8 -34 10
-5 5 140 154 150 154 3 0 11 -12 18 -27z m7041 0 c2 -2 -86 -94 -195 -204
l-200 -199 -3 42 -3 41 168 169 c158 158 170 168 198 162 17 -3 32 -8 35 -11z
m50 -51 l0 -47 -225 -225 -225 -225 0 55 0 55 217 217 c120 120 221 218 225
218 5 0 8 -21 8 -48z m-7052 -44 c10 -28 9 -35 -9 -54 -18 -19 -25 -20 -60
-11 l-40 10 42 43 c24 24 46 44 49 44 3 0 11 -14 18 -32z m8655 -108 c-35 -35
-41 -37 -72 -28 l-34 9 69 70 69 70 3 -42 c3 -38 -1 -46 -35 -79z m-10604
-166 c-153 -154 -176 -173 -199 -167 -14 3 -29 8 -34 11 -4 2 83 96 195 208
l204 204 3 -42 3 -41 -172 -173z m8824 -37 c-98 -95 -199 -193 -225 -216 l-48
-44 0 44 c0 44 0 44 223 267 l222 222 3 -49 3 -50 -178 -174z m-6843 233 c0
-5 -4 -10 -10 -10 -5 0 -10 5 -10 10 0 6 5 10 10 10 6 0 10 -4 10 -10z m9720
7 c0 -1 -97 -99 -215 -217 l-215 -215 0 55 0 55 156 149 c141 135 161 150 207
162 57 14 67 15 67 11z m-4407 -25 c14 -6 6 -19 -51 -75 -57 -56 -78 -70 -123
-82 -30 -8 -58 -15 -64 -15 -5 0 31 41 80 90 91 91 109 101 158 82z m4260
-254 c-92 -90 -194 -188 -225 -218 l-58 -53 0 44 c0 44 0 44 223 267 l222 222
3 -49 3 -49 -168 -164z m-4421 205 c-85 -107 -153 -153 -222 -153 -22 0 -14
10 59 84 65 65 92 86 125 94 67 16 69 14 38 -25z m276 27 c28 0 -59 -80 -98
-90 -102 -26 -101 -28 -35 39 53 55 64 62 89 57 16 -3 36 -6 44 -6z m3232 -15
c0 -18 -5 -25 -20 -25 -24 0 -25 8 -3 32 21 23 23 23 23 -7z m765 -99 l-130
-123 -3 41 c-4 40 -1 43 74 112 73 68 111 88 174 93 8 0 -44 -55 -115 -123z
m-3890 83 c3 -4 -14 -13 -37 -19 -24 -6 -52 -14 -63 -17 -17 -5 -16 -1 8 24
21 23 34 29 57 25 17 -2 33 -8 35 -13z m-7392 -131 c-26 -27 -83 -81 -125
-119 -73 -67 -79 -70 -114 -63 l-36 7 158 159 159 158 3 -46 c3 -44 0 -50 -45
-96z m6801 61 l-71 -71 -42 9 -42 8 49 48 c35 34 63 52 98 62 81 22 82 18 8
-56z m4396 26 c-24 -25 -45 -45 -47 -45 -2 0 -3 16 -3 35 0 30 4 36 33 44 59
17 62 11 17 -34z m-2544 -294 l-226 -226 0 52 0 51 223 216 222 216 3 -42 3
-42 -225 -225z m-2000 260 c-34 -35 -41 -38 -68 -30 -17 4 -32 10 -35 12 -12
13 58 41 137 56 2 1 -13 -17 -34 -38z m4720 -310 l-226 -226 0 52 0 51 223
217 222 216 3 -42 3 -43 -225 -225z m-11394 106 c-66 -66 -70 -68 -105 -62
-21 4 -37 11 -37 15 0 4 46 52 103 106 l102 99 3 -45 c3 -42 1 -46 -66 -113z
m6333 114 c3 -5 1 -12 -5 -16 -5 -3 -10 1 -10 9 0 18 6 21 15 7z m2343 -302
l-223 -216 -3 40 -3 41 223 223 223 223 3 -47 3 -48 -223 -216z m-2242 278 c2
-2 -23 -30 -56 -62 l-60 -59 0 44 c0 34 6 50 26 71 22 23 30 26 56 18 17 -4
32 -10 34 -12z m90 -15 c19 -6 9 -20 -92 -126 l-114 -119 0 54 c0 53 1 54 72
126 72 72 86 79 134 65z m4872 -313 l-223 -216 -3 45 -3 46 223 223 223 223 3
-52 3 -53 -223 -216z m-4756 282 c4 -4 -67 -81 -157 -171 l-165 -165 0 43 c0
42 5 49 127 178 120 127 129 134 158 128 16 -3 33 -9 37 -13z m-6585 -128
c-12 -12 -22 -12 -57 -3 l-43 12 54 54 54 55 3 -52 c2 -35 -1 -57 -11 -66z
m6682 108 c12 -7 -21 -47 -146 -178 -89 -92 -187 -193 -217 -223 l-56 -54 0
49 0 50 182 182 c180 180 202 196 237 174z m1939 -348 l-223 -223 -3 52 -3 52
223 217 223 216 3 -45 3 -46 -223 -223z m-2143 -22 l-216 -216 3 48 c3 49 3
49 213 266 l210 217 3 -50 3 -50 -216 -215z m4863 -28 l-223 -223 -3 52 -3 53
223 216 223 216 3 -45 3 -46 -223 -223z m-2660 -19 c-90 -88 -191 -187 -225
-219 l-63 -58 0 44 c0 44 0 44 223 267 l222 222 3 -48 3 -49 -163 -159z
m-2000 128 c-7 -11 -104 -113 -215 -227 l-203 -208 0 54 0 54 213 213 212 212
3 -40 c2 -22 -3 -48 -10 -58z m4725 -173 c-87 -85 -188 -184 -225 -219 l-68
-63 0 44 0 44 223 223 222 222 3 -48 3 -48 -158 -155z m-5263 -969 l0 -1180
-37 5 c-21 3 -184 19 -363 35 -179 17 -346 33 -372 36 l-48 6 0 1048 0 1048
93 21 c50 12 227 52 392 90 165 38 308 70 318 70 16 1 17 -62 17 -1179z
m-1309 1126 c-36 -37 -53 -46 -103 -56 -33 -6 -62 -10 -64 -8 -2 3 13 21 34
40 25 25 55 42 92 51 84 23 88 20 41 -27z m117 25 c23 -6 23 -7 5 -22 -10 -9
-35 -20 -56 -23 -21 -4 -46 -10 -55 -13 -9 -3 -1 10 17 30 35 37 46 41 89 28z
m-284 -52 c-29 -28 -35 -31 -74 -24 -51 9 -43 19 30 38 77 21 78 21 44 -14z
m3952 -278 l-226 -226 1 55 1 55 222 213 221 214 3 -43 3 -43 -225 -225z
m-2138 -18 l-213 -213 -3 40 c-3 41 -2 42 210 262 l213 220 3 -48 3 -48 -213
-213z m4515 -1193 c-5 -4 -323 -78 -708 -165 -385 -87 -706 -160 -712 -163
-10 -3 -13 29 -13 142 l0 146 123 97 c426 338 881 807 1143 1179 54 77 115
168 134 202 l35 61 3 -746 c1 -411 -1 -750 -5 -753z m342 1161 l-226 -226 3
55 3 55 220 213 220 214 3 -43 3 -43 -226 -225z m-6125 -1771 c0 -1127 -3
-2050 -6 -2050 -4 0 -112 -25 -240 -55 -129 -30 -236 -55 -239 -55 -3 0 -4
926 -3 2057 l3 2057 225 47 c124 26 233 47 243 48 16 1 17 -103 17 -2049z
m-802 2002 c22 -7 21 -9 -23 -52 l-45 -44 0 45 c0 61 8 67 68 51z m4210 -313
l-223 -216 -3 45 -3 46 223 223 223 223 3 -52 3 -53 -223 -216z m-4094 282 c3
-4 -38 -51 -89 -106 l-94 -100 -1 50 c0 47 3 52 60 110 52 53 65 61 91 57 16
-2 31 -7 33 -11z m1988 -269 c-99 -103 -196 -203 -216 -221 l-36 -35 0 49 0
50 213 213 212 212 3 -40 c3 -41 2 -43 -176 -228z m-1902 230 c0 -22 -27 -54
-135 -162 l-135 -135 0 48 c0 47 2 50 108 162 84 89 113 114 135 114 23 1 27
-3 27 -27z m6728 -292 l-223 -217 -3 45 -3 46 223 223 223 223 3 -52 3 -52
-223 -216z m-6740 131 c-8 -11 -69 -76 -136 -145 l-122 -126 0 53 0 52 133
133 132 132 3 -40 c2 -22 -3 -48 -10 -59z m4020 -218 l-223 -223 -3 52 -3 53
223 216 223 216 3 -45 3 -46 -223 -223z m-2142 -22 l-216 -216 0 46 0 46 213
220 212 220 3 -51 3 -50 -215 -215z m4862 -18 l-223 -223 -3 47 -3 48 223 216
223 217 3 -41 3 -41 -223 -223z m-8882 -70 c-1 -1 -30 5 -64 14 l-62 15 0 147
1 146 64 -160 c35 -88 63 -161 61 -162z m1764 -473 l0 -770 -22 9 c-297 118
-390 162 -581 273 l-207 121 -70 131 c-89 168 -194 311 -301 407 -89 81 -254
191 -329 220 -25 10 -43 19 -40 20 32 9 1520 357 1533 358 16 1 17 -42 17
-769z m256 541 l-136 -136 0 45 c1 44 4 48 133 184 l132 139 3 -48 3 -49 -135
-135z m4142 -84 l-223 -218 -3 42 -3 43 223 223 223 223 3 -47 4 -48 -224
-218z m-1954 170 c-15 -18 -112 -119 -215 -226 l-189 -193 0 53 0 54 213 213
212 212 3 -40 c3 -32 -2 -47 -24 -73z m4674 -220 l-223 -218 -3 42 -3 43 223
223 223 223 3 -47 4 -48 -224 -218z m-6860 1 l-133 -141 -3 48 -3 48 133 134
133 133 3 -40 c3 -40 0 -44 -130 -182z m4137 -87 l-226 -226 3 55 3 56 220
213 220 213 3 -43 3 -43 -226 -225z m-2137 -18 l-213 -213 -3 40 c-3 41 -3 42
210 262 l213 221 3 -48 3 -49 -213 -213z m4857 -32 l-226 -226 3 56 3 55 220
213 220 214 3 -43 3 -44 -226 -225z m-3907 220 c8 -23 7 -32 -4 -42 -12 -10
-14 -5 -14 30 0 49 4 51 18 12z m-5758 16 c0 -1 -344 -346 -765 -767 -806
-806 -781 -783 -714 -635 18 40 146 175 687 722 l665 672 51 4 c28 2 57 4 64
5 6 1 12 1 12 -1z m120 -5 c0 -13 -284 -289 -330 -319 -113 -76 -405 -364
-480 -473 -44 -64 -161 -188 -474 -500 -229 -228 -416 -412 -416 -409 0 3 7
30 16 60 15 52 38 76 812 852 773 773 798 797 834 797 21 0 38 -3 38 -8z
m2686 -231 l-136 -136 0 48 0 48 133 138 132 137 3 -50 3 -50 -135 -135z
m4147 -76 c-135 -132 -221 -208 -225 -201 -4 6 -8 24 -8 41 0 26 31 61 223
253 l222 222 3 -51 3 -52 -218 -212z m-6749 290 l29 -6 -39 -40 c-23 -23 -83
-63 -143 -94 l-104 -53 103 103 c57 57 108 102 114 100 6 -2 24 -6 40 -10z
m-1005 -635 c-343 -346 -624 -630 -625 -630 -5 0 40 94 74 156 26 47 133 160
530 557 486 486 500 499 563 522 35 13 68 24 72 24 5 1 -272 -282 -614 -629z
m1121 610 c28 -8 22 -12 -52 -29 -64 -15 -65 -15 -38 14 24 25 45 29 90 15z
m4488 -292 l-213 -221 -3 48 -3 49 213 213 213 213 3 -40 c3 -41 3 -42 -210
-262z m4860 -28 l-223 -217 -3 45 -3 46 223 223 223 223 3 -51 3 -52 -223
-217z m-3896 207 l-32 -32 0 44 c0 28 6 52 17 63 17 19 18 19 32 -12 14 -30
14 -32 -17 -63z m-6162 50 c0 -1 -201 -202 -446 -447 -470 -468 -473 -470
-328 -250 51 77 112 144 316 346 245 243 256 252 353 302 103 53 105 54 105
49z m1161 -46 c194 -37 362 -122 522 -265 142 -127 290 -364 372 -595 107
-304 152 -769 109 -1139 -17 -148 -68 -377 -133 -594 -71 -238 -217 -544 -376
-788 -72 -110 -103 -146 -256 -294 -332 -322 -585 -454 -924 -484 -252 -21
-516 76 -739 272 -209 184 -389 532 -450 871 -59 326 -71 581 -41 853 27 244
132 645 225 857 76 176 199 407 294 553 84 129 177 228 386 413 175 154 406
281 590 322 176 40 276 45 421 18z m2169 -26 c0 -43 -3 -47 -135 -184 l-135
-140 0 52 0 52 132 132 c73 73 134 133 135 133 2 0 3 -20 3 -45z m4031 -239
l-200 -200 -15 34 -16 35 213 206 212 207 3 -41 3 -41 -200 -200z m-2165 -55
l-216 -216 0 47 0 47 213 219 212 220 3 -51 3 -51 -215 -215z m1023 283 l13
-37 -51 -51 -51 -51 0 55 c0 47 4 58 32 87 18 18 35 33 38 33 3 0 12 -16 19
-36z m3839 -301 l-223 -223 -3 47 -4 48 224 216 223 217 3 -41 3 -41 -223
-223z m-3857 114 l-66 -68 -3 37 c-3 33 2 43 54 95 l58 59 12 -28 c11 -26 8
-30 -55 -95z m-3005 -116 l-136 -136 0 45 c0 44 4 48 133 184 l132 140 3 -49
3 -49 -135 -135z m4187 -53 l-178 -179 -17 38 -17 38 192 193 192 192 3 -52 3
-52 -178 -178z m-2014 124 c-24 -26 -121 -127 -216 -225 l-173 -177 0 52 0 53
213 213 212 212 3 -41 c3 -36 -2 -46 -39 -87z m-5709 115 c0 -1 -48 -50 -107
-107 l-108 -105 105 108 c97 99 110 112 110 104z m10398 -319 l-223 -217 -3
41 -3 42 223 223 223 223 3 -47 4 -48 -224 -217z m-3762 245 l16 -36 -91 -91
-91 -91 0 55 c0 54 0 55 72 127 40 40 74 73 76 73 2 0 10 -16 18 -37z m-3098
-244 l-133 -141 -3 48 -3 47 133 134 133 133 3 -40 c3 -39 0 -44 -130 -181z
m4205 -21 c-87 -87 -161 -158 -165 -158 -3 0 -11 12 -16 28 -9 26 -2 35 162
200 l171 172 3 -42 3 -41 -158 -159z m-2208 -87 l-216 -216 3 47 c3 46 6 49
213 264 l210 218 3 -49 3 -49 -216 -215z m1143 250 c10 -28 7 -33 -96 -133
l-107 -103 -3 44 c-3 44 -2 45 89 137 51 51 96 91 100 89 4 -3 12 -18 17 -34z
m3717 -280 l-226 -226 3 56 3 57 220 213 220 213 3 -44 3 -44 -226 -225z
m-6859 0 l-136 -136 0 49 0 48 133 138 132 137 3 -50 3 -51 -135 -135z m4228
6 c-75 -73 -142 -132 -147 -132 -6 0 -15 13 -20 29 -9 27 -4 34 144 182 l154
154 3 -50 3 -51 -137 -132z m-1050 185 l15 -29 -130 -129 -129 -129 0 52 0 51
111 106 c62 58 113 106 115 106 2 0 10 -13 18 -28z m-1176 -293 l-213 -221 -3
48 -3 48 213 213 213 213 3 -40 c3 -41 2 -42 -210 -261z m4876 -12 c-114 -111
-215 -208 -226 -215 -17 -12 -18 -10 -18 30 0 43 2 44 223 266 l222 222 3 -51
3 -51 -207 -201z m-3798 44 l-146 -146 0 45 c0 44 2 47 133 178 l132 133 13
-32 13 -32 -145 -146z m-2946 125 c0 -43 -3 -47 -135 -182 l-134 -139 -1 50 0
50 132 132 c73 73 134 133 135 133 2 0 3 -20 3 -44z m4106 -165 l-125 -124
-15 34 -15 34 137 132 137 132 3 -41 c3 -41 2 -43 -122 -167z m-2240 -130
l-216 -216 0 48 0 48 213 219 212 219 3 -51 3 -52 -215 -215z m4862 -18 l-223
-223 -3 47 -4 48 224 217 223 217 3 -41 3 -42 -223 -223z m-3608 261 l12 -37
-166 -166 -166 -166 0 55 0 55 147 147 c81 82 151 148 155 148 3 0 12 -16 18
-36z m-3254 -263 l-136 -136 0 45 c0 44 3 48 133 184 l132 140 3 -49 3 -49
-135 -135z m4262 37 c-56 -54 -106 -98 -109 -98 -3 0 -10 12 -16 28 -10 26 -5
32 106 145 l116 118 3 -48 4 -48 -104 -97z m-2099 24 c-29 -32 -126 -132 -216
-224 l-163 -166 0 51 0 52 213 213 212 212 3 -41 c3 -37 -1 -46 -49 -97z
m1129 109 c10 -27 5 -34 -174 -212 l-184 -184 0 45 c0 45 1 46 167 212 92 93
171 168 174 168 4 0 12 -13 17 -29z m3570 -303 l-223 -217 -3 41 -3 42 223
223 223 223 3 -47 4 -48 -224 -217z m-3533 211 c6 -24 -11 -45 -170 -210 -97
-101 -180 -185 -184 -187 -4 -1 -13 14 -20 34 l-13 37 183 183 c101 101 187
180 190 176 4 -4 10 -19 14 -33z m-3327 -209 l-133 -140 -3 52 -3 52 133 133
133 133 3 -45 3 -45 -133 -140z m4276 60 l-87 -85 -15 31 -15 32 99 95 99 95
3 -41 c3 -40 1 -44 -84 -127z m-2278 -169 l-216 -216 0 45 c0 45 0 45 213 264
l212 220 3 -49 3 -49 -215 -215z m-5654 212 c-25 -49 -53 -100 -61 -114 -16
-25 -702 -702 -707 -697 -1 2 2 26 7 53 9 49 17 58 407 448 218 218 398 397
399 397 1 0 -19 -39 -45 -87z m-3082 67 c24 0 24 0 5 -20 -11 -10 -49 -26 -84
-34 l-64 -15 39 40 c28 29 45 38 59 35 11 -3 31 -6 45 -6z m-160 -45 c-28 -25
-58 -45 -68 -45 -9 0 -28 -3 -42 -6 -21 -6 -18 1 25 45 44 46 54 51 92 51 l44
0 -51 -45z m273 39 c36 -6 37 -8 21 -25 -12 -14 -31 -19 -66 -19 -52 0 -56 4
-31 32 18 20 21 21 76 12z m13483 -303 l-226 -226 0 55 1 55 222 215 222 215
3 -44 3 -45 -225 -225z m-13883 247 c-46 -46 -61 -54 -124 -69 l-71 -17 59 60
c67 69 81 76 143 77 l45 1 -52 -52z m527 26 c0 -2 -19 -4 -41 -4 -35 0 -40 2
-30 14 10 11 19 12 42 4 16 -5 29 -12 29 -14z m9696 -243 l-185 -185 -17 37
-17 36 184 192 183 191 19 -43 18 -43 -185 -185z m-10394 186 c-56 -57 -70
-65 -129 -79 l-65 -16 67 68 c66 67 97 83 175 89 8 0 -14 -27 -48 -62z m-172
-36 c-58 -54 -86 -72 -123 -81 -26 -7 -50 -10 -52 -8 -3 2 24 32 59 67 52 52
72 65 117 76 30 7 59 13 64 14 6 0 -24 -30 -65 -68z m7366 -180 l-136 -136 0
48 0 49 133 138 132 139 3 -51 3 -52 -135 -135z m4302 72 c-34 -34 -65 -63
-69 -63 -3 0 -12 19 -20 42 l-13 41 79 75 80 75 3 -53 3 -53 -63 -64z m-5148
60 c98 -59 198 -107 363 -173 l227 -93 -2 -506 -3 -505 -365 -83 c-201 -45
-368 -81 -371 -80 -3 1 9 65 27 142 41 175 74 453 74 633 0 148 -25 368 -65
585 -14 72 -28 140 -31 151 -3 10 -2 16 2 14 5 -3 70 -41 144 -85z m-6695 7
c-58 -58 -76 -71 -118 -80 -28 -6 -52 -9 -54 -6 -2 2 23 33 57 69 59 64 90 79
170 86 8 0 -17 -30 -55 -69z m9543 -241 l-213 -220 -3 47 -3 48 213 213 213
213 3 -40 c3 -40 2 -41 -210 -261z m1407 251 c5 -22 -16 -47 -178 -209 l-184
-183 -12 33 -11 33 182 183 c100 100 186 179 189 175 4 -4 10 -18 14 -32z
m3488 -244 c-103 -100 -205 -197 -225 -215 l-38 -33 0 43 c0 44 1 45 223 267
l222 222 3 -50 3 -50 -188 -184z m-14601 201 c-67 -67 -78 -75 -137 -89 l-64
-15 28 36 c80 100 97 110 241 140 2 1 -28 -32 -68 -72z m1373 38 c169 -13 447
-124 607 -243 96 -71 182 -167 316 -353 74 -103 132 -242 168 -403 29 -132 33
-354 9 -503 -30 -187 -149 -432 -296 -610 -125 -151 -367 -309 -573 -375 -65
-20 -126 -44 -135 -51 -9 -8 -252 -67 -541 -131 -601 -134 -626 -140 -634
-162 -3 -9 -6 -334 -6 -723 l0 -706 -232 -54 c-128 -30 -239 -56 -245 -59 -10
-3 -13 412 -13 2055 l0 2059 549 127 c528 123 555 128 687 133 76 3 141 7 144
10 2 3 30 3 60 0 30 -3 91 -8 135 -11z m-1555 -80 l-75 -75 -39 11 -39 11 52
52 c50 50 87 68 161 75 8 0 -19 -33 -60 -74z m-132 -1 c-43 -44 -48 -46 -83
-40 l-38 7 27 27 c16 17 46 31 79 38 28 7 54 12 57 13 3 0 -16 -20 -42 -45z
m8152 -7 c0 -42 -4 -47 -134 -182 l-135 -140 0 50 -1 50 132 132 c73 73 134
133 135 133 2 0 3 -19 3 -43z m3320 -19 c0 -15 -352 -363 -367 -363 -3 0 -11
13 -16 29 -9 27 -3 35 174 212 176 176 184 183 196 161 7 -12 12 -30 13 -39z
m863 -70 l-48 -49 -14 31 c-15 30 -15 31 45 91 l59 60 3 -42 c3 -38 -1 -46
-45 -91z m-2315 -205 l-213 -213 -3 45 -3 45 213 220 213 219 3 -51 3 -52
-213 -213z m-10159 291 c-12 -11 -24 -13 -45 -8 l-29 8 30 7 c54 12 61 11 44
-7z m15017 -313 l-226 -226 0 52 0 51 223 216 222 216 3 -42 3 -42 -225 -225z
m-10635 267 c-48 -121 -52 -126 -367 -433 l-307 -300 7 50 6 50 332 328 c182
180 333 327 335 327 1 0 -1 -10 -6 -22z m7089 -253 c-176 -176 -185 -184 -196
-162 -7 12 -14 29 -15 38 -3 10 65 82 181 193 l184 178 15 -32 15 -31 -184
-184z m-11702 217 c22 -7 22 -8 -18 -47 l-40 -39 0 47 c0 50 5 53 58 39z
m8388 -231 l-136 -136 0 46 c0 45 2 48 133 184 l132 139 3 -49 3 -49 -135
-135z m4337 112 c-26 -21 -29 -22 -40 -6 -21 27 -15 45 25 86 l37 38 3 -48 c3
-42 0 -50 -25 -70z m-12613 90 c2 -2 -35 -43 -83 -91 l-87 -87 0 45 c0 40 5
49 52 97 47 48 56 53 83 47 16 -3 32 -8 35 -11z m105 -25 c2 -2 -59 -68 -135
-148 l-139 -145 -1 50 0 50 106 106 c102 102 108 106 137 98 16 -4 31 -10 32
-11z m10266 -186 c-66 -70 -163 -170 -215 -222 l-96 -95 0 50 0 50 213 213
212 212 3 -40 c3 -40 0 -44 -117 -168z m4767 -129 l-223 -223 -3 47 -3 47 223
223 223 223 3 -47 3 -47 -223 -223z m-14919 291 c3 -3 -84 -93 -192 -202
l-197 -197 0 47 0 48 153 160 152 160 40 -5 c21 -3 41 -8 44 -11z m11578 -13
c10 -28 7 -32 -173 -212 -101 -101 -185 -181 -188 -178 -3 3 -9 16 -15 29 -9
23 4 38 172 208 100 100 184 182 187 182 3 0 11 -13 17 -29z m-11573 -114
c-21 -23 -118 -124 -216 -225 l-178 -183 0 53 0 53 213 213 212 212 3 -40 c3
-36 -2 -47 -34 -83z m8054 -157 l-133 -139 -3 51 -3 52 133 133 133 133 3 -45
3 -45 -133 -140z m4353 127 c-7 -7 -15 1 -26 27 -15 36 -15 38 7 56 l23 18 3
-45 c2 -25 -1 -50 -7 -56z m-8225 56 c-8 -16 -19 -48 -26 -72 -10 -39 -48 -82
-293 -333 -154 -158 -282 -286 -283 -285 -2 2 1 32 6 67 l9 65 298 292 c164
161 299 292 301 293 1 0 -4 -12 -12 -27z m7432 -12 c10 -30 8 -33 -177 -210
l-187 -180 -12 32 -12 32 182 182 c100 100 185 180 189 177 4 -2 12 -17 17
-33z m-1562 -280 l-216 -216 0 45 0 46 213 219 212 219 3 -49 3 -49 -215 -215z
m4913 23 c-153 -154 -176 -173 -199 -167 -14 3 -29 8 -34 11 -4 2 83 96 195
208 l204 204 3 -42 3 -41 -172 -173z m-15144 -73 l-216 -216 3 47 c3 46 6 49
213 264 l210 217 3 -48 3 -49 -216 -215z m11833 217 c-3 -17 -344 -378 -357
-378 -4 0 -14 18 -21 41 -13 40 -13 40 21 73 19 18 101 97 183 176 140 137
149 143 162 125 8 -11 13 -27 12 -37z m-3602 -187 l-136 -136 0 43 c0 42 4 48
133 183 l132 140 3 -47 3 -48 -135 -135z m2002 -111 l-213 -220 -3 52 -3 52
213 213 213 213 3 -45 3 -45 -213 -220z m4990 103 c-143 -140 -151 -145 -194
-137 l-36 7 158 159 159 158 3 -48 3 -48 -93 -91z m-3348 93 c0 -11 -350 -366
-361 -366 -4 0 -12 13 -17 29 -10 29 -6 34 171 220 l182 189 12 -30 c7 -17 13
-35 13 -42z m-11872 -248 l-213 -220 -3 48 -3 48 213 213 213 213 3 -40 c3
-41 2 -42 -210 -262z m4280 225 l-20 -71 -260 -258 -260 -259 4 52 5 51 274
281 c150 154 274 279 276 278 1 -2 -7 -35 -19 -74z m5182 7 c184 -16 357 -33
383 -36 l48 -6 -3 -106 -3 -106 -380 -86 c-209 -48 -392 -90 -407 -93 l-28 -7
0 240 0 240 28 -5 c15 -3 178 -18 362 -35z m-1100 -23 c0 -41 -5 -47 -134
-182 l-135 -140 0 50 -1 50 132 132 c73 73 134 133 135 133 2 0 3 -19 3 -43z
m1868 -294 l-213 -213 -3 45 -3 45 213 221 213 220 3 -52 3 -53 -213 -213z
m1668 211 c-157 -156 -349 -334 -355 -329 -5 2 -12 17 -16 32 -6 24 9 42 177
210 l183 183 16 -37 c16 -37 16 -39 -5 -59z m3347 -76 c-61 -62 -71 -68 -98
-62 -16 3 -34 9 -38 14 -5 4 38 51 95 104 l103 98 3 -43 c3 -40 0 -45 -65
-111z m-15247 -187 l-216 -216 0 48 0 47 213 219 212 220 3 -52 3 -51 -215
-215z m8230 30 l-136 -136 0 47 c0 46 1 48 133 184 l132 137 3 -48 3 -49 -135
-135z m3542 -18 c-175 -175 -183 -182 -195 -160 -7 12 -13 29 -13 37 0 8 81
95 182 192 l183 177 13 -31 13 -31 -183 -184z m-7535 179 c-14 -58 -19 -63
-259 -303 l-244 -244 0 45 0 45 257 257 c142 142 259 258 259 258 1 0 -5 -26
-13 -58z m6068 -190 c-77 -81 -174 -181 -215 -222 l-76 -74 0 49 0 50 213 213
212 212 3 -40 c3 -40 1 -44 -137 -188z m5009 160 c0 -57 -18 -73 -69 -60 l-34
9 49 50 c26 27 50 49 51 49 2 0 3 -21 3 -48z m-15151 -120 c-29 -32 -126 -132
-216 -224 l-163 -166 0 51 0 52 213 213 212 212 3 -41 c3 -37 -1 -46 -49 -97z
m11819 89 c10 -27 5 -34 -173 -211 -169 -169 -184 -181 -194 -162 -6 11 -11
27 -11 34 0 13 349 368 361 368 4 0 12 -13 17 -29z m-3750 -230 l-133 -138 -3
50 -3 51 133 133 133 133 3 -45 3 -46 -133 -138z m1997 -110 l-216 -216 3 49
3 48 210 217 210 216 3 -49 3 -50 -216 -215z m-6033 227 l-16 -67 -223 -223
-223 -223 0 55 0 55 237 237 c130 131 238 236 239 235 1 -1 -5 -32 -14 -69z
m7701 -141 c-76 -73 -161 -154 -188 -180 l-51 -46 -12 32 -12 32 182 182 183
183 17 -35 18 -34 -137 -134z m-11897 -136 l-216 -216 0 45 c0 45 0 45 213
264 l212 220 3 -49 3 -49 -215 -215z m8230 30 l-136 -136 0 43 c0 42 4 48 133
184 l132 140 3 -48 3 -48 -135 -135z m3829 169 c5 -23 -14 -47 -167 -206 -95
-99 -177 -182 -182 -184 -4 -3 -15 13 -24 35 l-16 39 184 178 c101 98 187 175
191 170 4 -4 10 -18 14 -32z m-1827 -280 l-213 -219 -3 51 -3 52 213 213 213
213 3 -45 3 -46 -213 -219z m-10230 -51 l-213 -221 -3 48 -3 48 213 213 213
213 3 -40 c3 -40 2 -41 -210 -261z m4170 252 c-5 -49 -7 -52 -213 -265 -115
-118 -212 -213 -217 -210 -4 3 -8 24 -8 47 0 41 4 45 217 259 120 120 220 218
222 218 2 0 1 -22 -1 -49z m7932 -36 c0 -6 -69 -78 -152 -162 -146 -144 -155
-151 -186 -146 -18 3 -32 9 -30 14 2 5 79 88 173 185 l169 177 13 -29 c7 -16
12 -34 13 -39z m-3740 -7 c0 -41 -6 -48 -135 -183 l-134 -140 -1 50 0 50 132
132 c73 73 134 133 135 133 2 0 3 -19 3 -42z m1868 -285 l-213 -213 -3 40 c-3
40 -2 41 210 261 l213 221 3 -48 3 -48 -213 -213z m-10230 -60 l-213 -213 -3
45 -3 46 213 219 213 219 3 -51 3 -52 -213 -213z m12142 257 c0 -9 -51 -66
-114 -129 l-113 -113 -43 7 -43 7 144 144 c138 138 144 143 156 121 7 -12 12
-29 13 -37z m-7987 -18 l-6 -53 -196 -190 -196 -189 -9 29 c-8 29 -1 37 200
245 114 119 209 215 210 213 1 -1 -1 -26 -3 -55z m4073 -211 l-136 -136 0 47
c0 47 1 48 133 185 l132 138 3 -49 3 -50 -135 -135z m2002 -98 l-213 -213 -3
42 -3 42 213 213 213 213 3 -42 3 -42 -213 -213z m1872 142 c-72 -73 -87 -84
-109 -78 -15 3 -30 8 -35 11 -4 2 38 51 95 108 l104 104 14 -30 15 -31 -84
-84z m-11890 62 c0 -43 -2 -46 -215 -265 l-215 -221 0 52 0 52 212 212 c117
117 214 213 215 213 2 0 3 -19 3 -43z m3801 -215 c-160 -169 -239 -247 -245
-241 -2 2 -6 25 -7 50 l-4 45 190 185 190 184 3 -43 c3 -43 2 -44 -127 -180z
m4342 114 c-4 -7 -65 -73 -135 -145 l-128 -132 0 53 0 53 133 133 132 132 3
-40 c2 -22 0 -46 -5 -54z m3854 63 c11 -29 10 -33 -35 -81 -43 -46 -49 -49
-82 -43 -19 4 -37 9 -39 11 -5 5 130 144 139 144 3 0 11 -14 17 -31z m-1767
-33 c0 -43 -2 -46 -204 -255 -113 -117 -208 -212 -213 -212 -4 0 -9 20 -11 43
l-3 42 213 213 c117 117 214 213 215 213 2 0 3 -20 3 -44z m-10444 -325 l-216
-216 0 45 0 45 213 219 212 220 3 -49 3 -49 -215 -215z m12248 267 c11 -28 11
-35 -1 -50 -11 -13 -21 -14 -45 -7 -17 4 -33 11 -36 14 -5 4 56 75 65 75 2 0
9 -15 17 -32z m-8278 -267 c-96 -96 -177 -173 -180 -171 -2 3 -6 20 -8 38 -3
31 9 46 177 220 l180 187 3 -49 3 -50 -175 -175z m4260 30 l-136 -136 0 44 c0
42 4 48 133 183 l132 141 3 -49 3 -48 -135 -135z m2057 -43 c-153 -153 -160
-158 -191 -152 -18 4 -31 10 -30 15 2 4 86 94 188 200 l185 193 3 -49 3 -49
-158 -158z m-10285 -118 l-213 -220 -3 52 -3 52 213 213 213 213 3 -45 3 -45
-213 -220z m4152 220 c0 -19 -40 -65 -167 -192 -92 -93 -171 -168 -174 -168
-4 0 -9 15 -12 33 -5 30 3 40 166 204 172 173 186 183 187 123z m4078 -192
l-133 -141 -3 48 -3 48 133 134 133 133 3 -40 c3 -40 0 -44 -130 -182z m2212
160 c-1 -40 -7 -49 -103 -152 l-103 -109 -38 13 -38 12 138 139 c76 77 140
139 141 139 2 0 3 -19 3 -42z m-10442 -325 l-213 -213 -3 45 -3 45 213 220
213 220 3 -52 3 -52 -213 -213z m4009 55 c-89 -87 -165 -158 -168 -158 -3 0
-11 12 -18 27 -12 26 -8 31 161 200 l173 173 7 -42 7 -43 -162 -157z m4219
-27 l-136 -136 0 48 c0 47 0 48 133 185 l132 137 3 -49 3 -50 -135 -135z
m2164 64 c-51 -52 -52 -52 -91 -42 l-40 10 88 91 88 91 3 -49 c3 -47 1 -51
-48 -101z m-10319 -143 c-77 -81 -174 -181 -215 -222 l-76 -74 0 49 0 50 213
213 212 212 3 -40 c3 -40 1 -44 -137 -188z m4109 168 c0 -19 -36 -61 -150
-175 -82 -82 -151 -147 -153 -145 -2 3 -10 20 -17 38 -12 30 -11 35 6 51 10
10 81 78 158 151 142 137 155 143 156 80z m4046 -209 l-136 -136 0 45 c0 44 2
47 133 178 l132 132 3 -42 c3 -41 3 -42 -132 -177z m2214 153 l0 -46 -32 7
c-18 4 -35 9 -37 11 -4 4 59 74 66 74 2 0 3 -21 3 -46z m-6241 -64 c1 -20 -30
-56 -139 -165 l-139 -139 -16 39 -17 38 149 149 c158 158 159 159 162 78z
m-4204 -259 l-216 -216 3 48 c3 48 3 49 213 265 l210 217 3 -49 3 -50 -216
-215z m8231 30 l-136 -136 0 50 0 50 133 133 132 132 3 -47 3 -47 -135 -135z
m-4005 117 c3 -22 -17 -46 -127 -151 l-131 -126 -16 32 -15 32 136 137 c144
145 144 145 153 76z m-4223 -278 l-213 -219 -3 51 -3 52 213 213 213 213 3
-45 3 -45 -213 -220z m8266 69 c-85 -86 -101 -98 -124 -92 -14 3 -29 8 -34 11
-4 2 50 63 120 134 l129 129 3 -42 c3 -41 1 -44 -94 -140z m-4024 125 c9 -24
2 -35 -106 -150 -65 -68 -120 -124 -124 -124 -4 0 -13 14 -21 32 l-13 31 125
118 c68 65 125 118 127 119 1 0 7 -12 12 -26z m-4242 -321 l-213 -213 -3 40
c-3 40 -2 41 210 261 l213 220 3 -47 3 -48 -213 -213z m4179 80 c-61 -62 -115
-113 -118 -113 -4 0 -14 11 -23 25 l-17 26 118 124 118 124 17 -37 17 -37
-112 -112z m4146 35 c-35 -36 -41 -39 -78 -33 -21 3 -41 8 -44 11 -3 2 31 41
75 85 l79 80 3 -52 c3 -48 1 -55 -35 -91z m-8272 -196 c-87 -92 -185 -192
-215 -222 l-56 -54 0 49 0 50 213 213 212 212 3 -40 c3 -41 1 -43 -157 -208z
m4228 138 c-20 -25 -66 -73 -102 -108 l-64 -64 -21 29 -21 28 112 113 112 112
11 -32 c10 -31 9 -36 -27 -78z m4078 3 c-3 -3 -15 -2 -27 2 l-22 7 24 25 23
25 3 -27 c2 -15 1 -29 -1 -32z m-4007 -24 c13 -30 13 -31 -81 -125 -51 -52
-97 -94 -100 -94 -4 0 -14 10 -22 23 -15 23 -12 27 80 125 52 56 98 102 103
102 4 0 13 -14 20 -31z m-4355 -308 l-216 -216 3 48 c3 49 3 49 213 266 l210
217 3 -50 3 -50 -216 -215z m4403 223 c11 -24 7 -31 -70 -115 l-83 -89 -25 25
-25 25 90 90 c49 50 92 90 96 90 3 0 11 -12 17 -26z m-4200 -142 c-7 -11 -104
-113 -215 -227 l-203 -208 0 54 0 54 213 213 212 212 3 -40 c2 -22 -3 -48 -10
-58z m4245 56 l18 -31 -72 -73 -72 -73 -29 20 -28 20 77 85 c43 46 80 84 83
84 3 0 13 -14 23 -32z m-2536 -14 c-3 -3 -12 -4 -19 -1 -8 3 -5 6 6 6 11 1 17
-2 13 -5z m-40 -10 c-3 -3 -12 -4 -19 -1 -8 3 -5 6 6 6 11 1 17 -2 13 -5z
m-50 -10 c-3 -3 -12 -4 -19 -1 -8 3 -5 6 6 6 11 1 17 -2 13 -5z m-40 -10 c-3
-3 -12 -4 -19 -1 -8 3 -5 6 6 6 11 1 17 -2 13 -5z m-44 -11 c-7 -2 -19 -2 -25
0 -7 3 -2 5 12 5 14 0 19 -2 13 -5z m2777 -45 c0 -4 -26 -35 -58 -69 l-58 -62
-32 19 -32 18 72 73 73 73 17 -22 c10 -13 18 -26 18 -30z m-2823 36 c-3 -3
-12 -4 -19 -1 -8 3 -5 6 6 6 11 1 17 -2 13 -5z m-42 -9 c-21 -9 -699 -165
-713 -165 -43 0 26 18 340 90 293 66 415 91 373 75z m-1647 -322 l-213 -213
-3 40 c-3 41 -2 42 210 262 l213 220 3 -48 3 -48 -213 -213z m4553 245 c10
-13 18 -27 19 -33 0 -13 -82 -95 -95 -95 -5 0 -21 9 -34 19 l-24 19 53 56 c29
31 55 56 57 56 3 0 13 -10 24 -22z m65 -84 l25 -17 -32 -33 c-35 -36 -57 -41
-92 -23 -21 12 -20 13 23 50 25 22 46 39 48 39 1 0 14 -7 28 -16z m-4594 -272
c-105 -108 -202 -208 -216 -221 l-26 -24 0 49 0 49 213 213 212 212 3 -40 c3
-41 2 -42 -186 -238z m4663 208 c33 -37 -18 -61 -68 -33 -9 5 31 53 43 53 4 0
15 -9 25 -20z m51 -58 c-22 -5 -30 3 -21 18 5 8 11 7 22 -2 15 -12 14 -13 -1
-16z m-4740 -311 l-216 -216 0 46 0 47 213 220 212 219 3 -50 3 -51 -215 -215z
m183 61 c-18 -20 -115 -122 -216 -225 l-183 -188 0 53 0 53 213 213 212 212 3
-40 c3 -34 -2 -47 -29 -78z m-184 -321 l-216 -216 3 46 c3 46 6 50 213 265
l210 217 3 -48 3 -49 -216 -215z m3 -133 l-213 -221 -3 48 -3 49 213 213 213
213 3 -40 c3 -41 3 -42 -210 -262z m-2 -137 l-216 -216 0 47 0 47 213 219 212
220 3 -51 3 -51 -215 -215z m173 51 c-24 -26 -121 -127 -216 -225 l-173 -177
0 52 0 53 213 213 212 212 3 -41 c3 -36 -2 -46 -39 -87z m-141 -279 c-164
-165 -186 -183 -213 -181 -16 2 -30 8 -30 15 0 6 95 109 210 229 l210 218 3
-49 3 -49 -183 -183z m50 -80 c-124 -125 -135 -133 -163 -127 -16 3 -32 8 -35
11 -2 2 70 78 160 169 l165 164 3 -41 c3 -42 3 -43 -130 -176z m59 -81 l-75
-75 -47 8 -48 7 119 119 119 119 3 -52 3 -52 -74 -74z m48 -72 c-26 -27 -37
-29 -84 -14 -10 3 4 24 45 65 l59 60 3 -42 c3 -34 -2 -47 -23 -69z m21 -37
c-10 -10 -19 5 -10 18 6 11 8 11 12 0 2 -7 1 -15 -2 -18z"/>
<path d="M11676 16451 c-3 -4 -51 -12 -106 -16 -257 -18 -661 -224 -875 -446
-205 -212 -341 -399 -489 -674 -218 -402 -304 -679 -366 -1182 -50 -407 0
-919 118 -1193 181 -422 340 -631 597 -784 89 -53 94 -55 463 -145 206 -50
383 -89 395 -86 12 3 56 0 97 -8 59 -10 101 -10 200 -1 259 24 433 88 680 254
90 60 160 120 307 264 175 171 197 197 275 318 168 265 311 565 384 813 174
583 197 988 90 1550 -64 335 -260 705 -473 894 -164 145 -331 233 -548 289
-167 43 -694 162 -719 162 -13 0 -27 -4 -30 -9z m102 -118 c22 -5 19 -10 -50
-80 -40 -41 -95 -86 -123 -100 -27 -14 -77 -44 -110 -65 -54 -36 -46 -26 86
106 80 80 152 146 160 146 8 0 25 -3 37 -7z m-900 -808 c-441 -443 -804 -805
-805 -805 -1 0 6 27 15 60 l17 60 730 737 c559 566 737 739 760 744 102 21
130 52 -717 -796z m467 603 c-621 -630 -1207 -1218 -1203 -1206 3 7 20 47 38
88 33 74 40 82 634 677 611 613 629 629 701 632 13 1 -43 -63 -170 -191z m548
178 c38 -9 21 -31 -31 -41 -20 -4 -57 -15 -82 -26 l-45 -20 50 51 c28 28 56
48 65 46 8 -2 28 -7 43 -10z m-1078 -586 c-302 -302 -550 -548 -552 -546 -1 1
19 43 46 94 46 87 66 109 457 507 304 309 422 423 459 442 51 26 112 51 130
52 5 1 -237 -246 -540 -549z m1540 471 c349 -61 622 -274 815 -635 109 -205
165 -407 210 -756 47 -365 10 -714 -126 -1180 -73 -249 -206 -532 -378 -804
-74 -118 -96 -144 -261 -303 -201 -195 -309 -275 -500 -370 -197 -99 -437
-140 -625 -108 -90 15 -227 58 -290 90 -221 114 -396 297 -532 555 -109 206
-163 402 -208 755 -47 369 -7 720 134 1193 74 246 198 510 369 779 77 123 106
159 211 260 243 236 358 324 553 421 112 57 260 96 411 111 48 5 92 9 97 10 6
0 60 -8 120 -18z m-1586 -381 c-189 -192 -345 -350 -346 -350 -2 0 18 33 44
73 127 193 377 454 538 561 55 36 101 66 103 66 2 0 -151 -157 -339 -350z m85
-357 c-41 -64 -63 -102 -97 -163 -30 -54 -96 -124 -387 -409 -268 -262 -349
-337 -344 -315 24 98 25 100 437 512 221 221 404 402 406 402 2 0 -5 -12 -15
-27z m-215 -390 l-48 -98 -300 -300 c-166 -165 -301 -297 -301 -294 0 3 5 32
10 65 l11 59 337 332 c185 183 338 332 338 333 1 0 -20 -44 -47 -97z m-104
-243 l-34 -84 -267 -267 c-148 -148 -269 -267 -270 -266 -1 1 2 29 8 62 l10
60 291 292 c160 161 292 291 294 290 1 -2 -13 -40 -32 -87z m-61 -193 c-16
-51 -35 -73 -272 -309 l-254 -253 6 50 c6 50 7 51 268 312 144 144 264 261
266 258 2 -2 -4 -28 -14 -58z m-49 -179 l-17 -65 -240 -239 -239 -239 6 60 7
60 246 247 c135 136 248 246 249 244 2 -2 -3 -33 -12 -68z m-40 -168 c-13 -51
-26 -66 -232 -272 l-218 -218 -3 42 -3 42 232 232 c128 128 234 232 236 231 1
-2 -4 -27 -12 -57z m-29 -162 c-6 -41 -22 -59 -216 -253 l-210 -210 0 45 0 45
212 212 c117 117 214 210 216 208 3 -2 1 -24 -2 -47z m-15 -141 l-7 -58 -195
-195 -194 -194 -6 47 -7 48 206 207 c113 114 207 206 208 205 0 -1 -2 -28 -5
-60z m-195 -385 l-184 -185 -7 47 -8 48 189 189 189 189 3 -52 3 -52 -185
-184z m13 -108 c-95 -95 -176 -171 -181 -168 -4 3 -8 19 -8 37 0 28 22 54 178
210 l177 177 3 -42 3 -41 -172 -173z m9 -121 c-89 -89 -166 -159 -169 -155 -4
4 -9 19 -11 34 -3 24 19 50 167 198 l170 170 3 -42 3 -41 -163 -164z m19 -120
c-105 -106 -164 -158 -168 -150 -4 6 -9 27 -10 44 -4 31 8 45 161 198 l165
165 7 -47 7 -48 -162 -162z m173 77 c0 -19 -36 -61 -150 -175 -82 -82 -151
-147 -153 -145 -2 3 -8 16 -14 30 -10 24 -3 34 145 182 157 158 171 167 172
108z m-118 -283 l-141 -141 -15 34 -15 35 147 148 147 148 9 -42 9 -41 -141
-141z m157 43 c1 -19 -29 -55 -126 -152 l-128 -128 -17 33 -17 32 137 138
c142 142 149 146 151 77z m24 -97 c5 -25 -7 -41 -111 -145 -64 -65 -119 -118
-123 -118 -3 0 -11 12 -18 27 -12 26 -9 30 110 149 68 68 126 121 130 119 3
-3 9 -17 12 -32z m-73 -228 c-63 -63 -117 -115 -121 -115 -3 0 -11 12 -18 27
-12 26 -9 30 106 145 l118 118 14 -30 15 -31 -114 -114z m138 39 c10 -31 8
-33 -94 -135 l-105 -104 -19 25 c-11 14 -20 29 -20 35 0 15 213 226 221 217 3
-4 11 -21 17 -38z m36 -89 c17 -26 17 -26 -75 -125 -51 -55 -96 -100 -101
-100 -4 0 -15 12 -24 26 l-17 25 99 100 c54 54 99 99 100 99 1 0 9 -11 18 -25z
m48 -89 l16 -33 -86 -86 -87 -86 -28 20 -27 21 92 99 c51 54 96 99 99 99 3 0
12 -15 21 -34z m49 -88 l13 -31 -78 -74 -78 -75 -24 23 -25 23 83 83 c45 46
85 83 89 83 4 0 12 -14 20 -32z m52 -82 c15 -22 14 -25 -52 -90 l-68 -68 -28
24 -27 24 73 67 c40 37 76 67 80 67 4 0 14 -11 22 -24z m55 -75 l21 -29 -58
-50 c-61 -54 -63 -54 -110 -15 -5 4 110 123 119 123 4 0 16 -13 28 -29z m57
-77 c17 -26 17 -27 -18 -61 -33 -34 -36 -35 -71 -23 -20 6 -36 14 -36 17 0 7
93 92 101 93 4 0 14 -12 24 -26z m66 -97 c-15 -16 -27 -18 -56 -13 l-38 7 34
35 33 34 23 -22 c23 -22 23 -22 4 -41z m70 -23 l24 -26 -35 7 c-47 10 -53 14
-39 31 16 19 22 18 50 -12z"/>
<path d="M11885 15470 c-96 -21 -211 -83 -335 -181 -214 -170 -427 -483 -509
-746 -47 -153 -89 -336 -111 -489 -18 -120 -19 -153 -10 -259 13 -145 39 -303
75 -445 24 -96 33 -115 103 -218 87 -129 86 -127 101 -165 6 -15 19 -30 28
-34 10 -4 53 -33 95 -65 212 -161 406 -185 694 -88 129 44 235 110 342 214
231 224 378 472 482 815 64 209 99 532 81 736 -21 226 -98 447 -218 626 -90
134 -274 268 -411 301 -101 24 -295 23 -407 -2z m361 -158 c131 -175 214 -471
214 -767 0 -234 -37 -411 -146 -692 -120 -311 -226 -452 -504 -670 -116 -91
-284 -152 -423 -153 -64 0 -71 2 -98 31 -15 16 -58 74 -94 128 -56 82 -70 112
-90 192 -66 253 -87 489 -60 669 19 132 60 312 104 451 78 254 283 553 484
708 167 128 276 169 462 170 l101 1 50 -68z m194 -40 c20 -16 20 -19 7 -31
-13 -10 -18 -8 -32 18 -17 35 -8 40 25 13z m65 -112 l-29 -31 -17 33 c-17 32
-17 34 4 56 l21 23 25 -26 25 -25 -29 -30z m75 -15 c13 -24 11 -28 -25 -65
-22 -22 -42 -40 -46 -40 -4 0 -10 14 -14 31 -6 26 -2 36 26 65 18 19 36 34 39
34 4 0 13 -11 20 -25z m60 -99 c0 -6 -24 -36 -54 -65 l-54 -53 -9 39 c-10 37
-8 40 36 86 l46 48 18 -22 c9 -12 17 -26 17 -33z m39 -58 c11 -31 10 -34 -56
-100 l-68 -69 -6 38 c-6 35 -3 42 48 101 30 34 58 62 63 62 4 0 13 -14 19 -32z
m-25 -199 l-79 -80 -9 37 c-8 35 -7 37 65 110 l74 74 14 -30 15 -31 -80 -80z
m102 14 c7 -36 5 -38 -82 -122 l-89 -86 -3 44 c-3 43 -1 46 75 123 42 43 81
78 85 78 4 0 10 -17 14 -37z m29 -114 l7 -42 -106 -106 -106 -106 0 61 0 61
90 87 c49 47 94 86 99 86 5 0 12 -19 16 -41z m17 -109 c3 -39 2 -42 -120 -162
l-123 -123 6 50 c7 47 13 56 118 163 62 61 112 112 113 112 1 0 4 -18 6 -40z
m10 -133 c4 -37 1 -40 -137 -172 l-142 -134 10 52 c9 49 17 60 136 180 69 70
127 124 128 120 1 -5 3 -25 5 -46z m-2 -124 l0 -47 -167 -168 c-92 -92 -168
-166 -169 -165 -2 2 7 36 20 76 23 73 25 75 167 212 79 76 145 138 147 138 1
1 2 -20 2 -46z m-15 -152 c-7 -49 -10 -53 -196 -236 -105 -103 -192 -185 -195
-182 -3 3 7 33 21 68 23 57 45 83 197 236 95 95 174 170 176 168 2 -2 1 -26
-3 -54z m-21 -153 c-6 -44 -17 -56 -264 -303 l-259 -258 55 105 c53 104 57
109 260 307 114 111 208 200 210 198 2 -2 1 -24 -2 -49z m-39 -165 l-24 -77
-463 -464 c-255 -255 -471 -468 -481 -473 -10 -6 -36 -7 -59 -4 l-41 7 544
544 c299 299 545 544 546 544 1 0 -9 -35 -22 -77z m-70 -199 c-21 -47 -71
-104 -294 -333 -360 -369 -455 -461 -477 -461 -11 0 -30 -3 -44 -6 -16 -4 123
142 405 425 236 237 431 431 432 431 2 0 -8 -25 -22 -56z m-111 -230 c-76
-130 -144 -214 -280 -341 -111 -103 -187 -158 -252 -181 l-33 -11 41 47 c51
57 574 588 578 586 2 -1 -23 -46 -54 -100z m-789 -454 c-113 -113 -132 -129
-155 -123 -45 10 -43 21 8 75 36 38 67 59 111 76 33 13 82 41 108 62 26 22 50
39 53 40 3 0 -54 -58 -125 -130z m-185 -55 c-37 -38 -52 -41 -89 -21 -29 16
-19 24 53 41 73 18 73 18 36 -20z"/>
<path d="M16347 10960 c-338 -74 -734 -513 -870 -965 -85 -284 -122 -513 -113
-693 8 -133 41 -341 80 -488 20 -79 34 -107 97 -200 41 -59 79 -122 84 -138 6
-16 22 -37 36 -45 14 -9 60 -42 101 -73 165 -127 341 -176 510 -143 229 45
426 143 553 277 216 225 356 466 456 788 44 141 65 259 83 473 14 178 1 371
-37 512 -54 204 -182 426 -303 527 -99 83 -204 145 -276 164 -95 26 -291 27
-401 4z m332 -153 c162 -214 245 -633 195 -987 -37 -262 -200 -679 -332 -845
-30 -38 -56 -71 -56 -72 -3 -4 -836 -203 -850 -203 -56 0 -129 272 -156 582
-11 131 0 239 46 448 66 297 141 479 270 655 148 203 270 318 425 404 93 51
173 69 311 70 l107 1 40 -53z m234 -69 c17 -13 17 -15 -7 -37 l-24 -23 -17 32
c-20 39 -14 65 12 51 10 -5 26 -16 36 -23z m87 -73 c0 0 -18 -18 -40 -40 l-39
-39 -15 35 c-14 32 -13 35 11 61 l26 27 28 -22 c16 -11 29 -21 29 -22z m50
-75 c0 -4 -24 -28 -54 -54 l-54 -46 -7 38 c-6 35 -4 39 37 75 l43 37 18 -21
c9 -12 17 -25 17 -29z m50 -75 c0 -6 -28 -41 -62 -79 l-62 -68 -12 48 -12 49
56 52 57 51 17 -21 c10 -12 18 -27 18 -32z m40 -80 c0 -6 -33 -43 -74 -84 -58
-58 -75 -69 -80 -56 -12 32 -5 45 61 116 61 65 68 69 80 53 7 -10 13 -23 13
-29z m32 -69 l16 -33 -87 -87 c-47 -47 -89 -86 -93 -86 -3 0 -8 19 -11 43 -4
41 -3 44 72 120 41 42 78 77 81 77 4 0 13 -15 22 -34z m37 -121 c0 -12 -41
-63 -99 -125 l-100 -105 0 50 c0 49 1 50 92 142 95 96 106 99 107 38z m26 -95
c6 -34 3 -38 -115 -155 l-122 -120 7 55 c7 52 12 59 109 161 55 59 104 104
108 101 3 -4 9 -23 13 -42z m-82 -252 c-54 -55 -116 -113 -137 -131 l-39 -31
7 50 c7 46 14 56 134 177 l127 127 3 -46 3 -47 -98 -99z m-57 -187 l-166 -166
16 54 c9 30 19 64 24 76 4 12 70 81 147 154 l138 134 3 -44 3 -43 -165 -165z
m156 77 l-5 -53 -191 -197 c-104 -108 -191 -196 -193 -195 -1 2 11 39 27 82
29 78 33 83 197 247 92 92 168 168 169 168 1 0 -1 -24 -4 -52z m-14 -155 c-5
-38 -17 -76 -26 -87 -9 -10 -116 -113 -236 -230 -201 -194 -217 -207 -194
-161 13 28 31 66 38 85 9 21 95 119 220 247 113 117 205 213 206 213 0 0 -3
-30 -8 -67z m-25 -172 c-6 -22 -162 -187 -553 -583 -534 -542 -546 -553 -580
-549 -19 1 -39 5 -44 8 -13 9 131 148 244 236 58 44 140 113 184 151 76 68
219 234 246 286 19 37 505 510 508 495 2 -7 -1 -27 -5 -44z m-44 -159 l-22
-71 -457 -456 -456 -456 -42 3 -42 3 517 526 c285 289 520 525 521 523 2 -1
-6 -34 -19 -72z m-84 -223 l-35 -84 -312 -311 c-278 -276 -319 -313 -362 -328
-27 -9 -59 -16 -70 -16 -15 0 102 123 394 415 228 228 416 413 417 411 2 -2
-12 -41 -32 -87z m-115 -218 c-29 -58 -166 -225 -251 -307 -65 -63 -138 -114
-219 -154 -14 -7 90 103 230 244 140 141 256 256 258 256 1 0 -7 -18 -18 -39z
m-585 -53 c-130 -116 -229 -186 -307 -217 -92 -36 -194 -61 -247 -61 -80 0
-97 9 -141 72 -23 32 -39 62 -35 66 7 8 739 189 769 191 14 1 2 -15 -39 -51z
m-311 -389 l-71 -71 -32 16 -32 17 23 28 c19 23 134 76 173 80 5 1 -22 -31
-61 -70z m-144 -9 c-13 -24 -23 -25 -39 -6 -12 14 -10 16 42 25 4 0 3 -8 -3
-19z"/>
<path d="M12220 10115 c-30 -7 -212 -47 -405 -89 -249 -54 -354 -81 -362 -93
-10 -13 -13 -181 -13 -758 0 -808 -2 -779 56 -778 34 1 903 194 1021 227 60
17 110 41 186 90 134 85 232 193 311 341 49 91 57 116 76 222 l20 120 -21 102
c-17 83 -30 120 -73 195 -85 150 -146 222 -238 284 -186 124 -391 175 -558
137z m134 -116 c-8 -13 -21 -11 -27 5 -4 10 0 12 14 9 10 -3 16 -9 13 -14z
m116 1 c23 0 22 -2 -20 -45 l-44 -45 -22 27 -22 28 21 23 c14 15 29 21 42 18
11 -3 31 -6 45 -6z m-228 -73 c31 -35 78 -99 104 -143 39 -66 50 -97 69 -190
21 -103 22 -118 9 -187 -27 -160 -165 -351 -329 -456 -76 -48 -107 -62 -200
-85 -60 -15 -117 -33 -125 -40 -11 -10 -188 -56 -215 -56 -3 0 -5 243 -5 540
l0 540 23 5 c21 6 596 132 608 134 3 1 31 -28 61 -62z m315 40 c22 -12 22 -14
-40 -75 l-64 -63 -17 27 -18 26 48 49 c52 53 57 55 91 36z m107 -55 c3 -5 -32
-45 -78 -91 l-82 -82 -19 36 -20 35 69 69 c68 69 70 70 97 55 15 -7 30 -18 33
-22z m61 -37 c18 -15 14 -20 -90 -125 l-110 -110 -9 36 c-8 36 -8 37 80 125
49 49 93 89 99 89 5 0 19 -7 30 -15z m67 -52 c10 -9 18 -21 18 -27 0 -6 -56
-67 -123 -134 l-124 -123 -16 25 c-10 14 -17 29 -17 33 0 8 231 243 239 243 2
0 13 -7 23 -17z m-86 -271 l-167 -167 6 50 c7 48 12 55 148 192 l140 142 20
-26 20 -25 -167 -166z m200 107 l16 -32 -237 -236 -237 -236 41 81 c23 44 41
87 41 95 0 14 338 359 352 359 4 0 15 -14 24 -31z m46 -85 c11 -24 -2 -39
-447 -484 -321 -321 -466 -460 -485 -464 -15 -3 -41 -8 -56 -12 -22 -5 99 121
466 489 272 274 498 497 503 497 4 0 13 -12 19 -26z m27 -124 c1 -20 -75 -100
-376 -401 -352 -350 -381 -377 -425 -388 -26 -6 -53 -11 -60 -11 -7 0 181 193
417 430 445 445 442 443 444 370z m5 -116 c-6 -49 -6 -49 -296 -335 -253 -248
-297 -287 -335 -297 -24 -7 -49 -12 -56 -12 -6 0 145 157 338 350 192 192 350
348 352 346 2 -1 0 -25 -3 -52z m-55 -196 c-23 -47 -65 -97 -163 -196 -72 -74
-149 -146 -171 -161 -34 -24 -132 -58 -140 -49 -1 2 110 113 248 248 138 135
252 240 254 233 2 -6 -10 -40 -28 -75z m-169 -241 c0 -2 -10 -12 -22 -23 l-23
-19 19 23 c18 21 26 27 26 19z m-751 -182 c-109 -110 -118 -117 -174 -130 -33
-7 -61 -12 -63 -11 -1 2 42 46 96 98 78 75 109 97 143 106 24 6 58 21 74 32
17 11 32 20 35 20 3 0 -47 -52 -111 -115z m-129 1 c0 -2 -38 -38 -85 -81 -73
-66 -93 -79 -141 -90 l-57 -13 83 83 c64 64 91 85 124 93 45 11 76 14 76 8z
m-245 -106 l-80 -81 -3 47 c-5 70 7 78 158 113 2 1 -31 -35 -75 -79z"/>
<path d="M17350 5850 l0 -440 204 0 c126 0 207 4 211 10 3 6 15 10 26 10 40 0
129 70 129 102 0 10 4 26 9 36 24 46 34 102 23 127 -7 14 -12 34 -12 44 0 10
-9 26 -20 36 -11 10 -20 25 -20 34 0 16 -23 36 -70 58 -24 11 -24 12 -5 18 11
4 31 21 45 38 23 29 25 39 25 139 l0 107 -35 36 c-40 41 -83 65 -116 65 -13 0
-26 5 -29 10 -4 6 -77 10 -186 10 l-179 0 0 -440z m365 310 c3 -5 16 -10 29
-10 28 0 46 -18 46 -46 0 -13 5 -26 10 -29 6 -3 10 -21 10 -39 0 -25 -9 -42
-32 -66 -47 -45 -65 -50 -199 -50 l-119 0 0 125 0 125 124 0 c73 0 127 -4 131
-10z m60 -374 c37 -19 56 -61 57 -124 1 -49 -3 -57 -38 -93 l-38 -39 -148 0
-148 0 0 135 0 135 144 0 c104 0 151 -4 171 -14z"/>
<path d="M18110 5850 l0 -440 45 0 45 0 0 440 0 440 -45 0 -45 0 0 -440z"/>
<path d="M18375 6278 c-3 -7 -4 -204 -3 -438 l3 -425 55 0 55 0 3 340 3 340
40 -125 c22 -69 72 -223 110 -343 l70 -218 47 3 46 3 110 350 111 349 3 -352
2 -352 45 0 45 0 0 440 0 440 -73 0 -73 0 -93 -312 c-51 -172 -95 -329 -98
-348 -3 -19 -12 -44 -19 -55 -14 -19 -14 -19 -14 2 0 12 -4 25 -10 28 -5 3
-10 21 -10 39 0 18 -43 169 -95 335 -52 166 -95 304 -95 307 0 2 -36 4 -80 4
-55 0 -82 -4 -85 -12z"/>
<path d="M19656 5863 c-82 -235 -151 -434 -154 -441 -3 -10 9 -12 54 -10 l59
3 45 133 45 132 154 -2 154 -3 45 -132 44 -133 65 0 c63 0 65 1 59 23 -3 12
-74 209 -158 437 l-153 415 -56 3 -55 3 -148 -428z m214 257 c0 -10 24 -91 54
-181 l54 -164 -115 -3 c-64 -1 -117 -1 -119 1 -6 6 66 249 87 291 10 22 19 50
19 63 0 14 4 21 10 18 6 -3 10 -14 10 -25z"/>
<path d="M20315 6278 c-3 -7 -4 -204 -3 -438 l3 -425 47 -3 48 -3 2 327 3 327
196 -324 197 -324 56 -3 56 -3 0 441 0 441 -47 -3 -48 -3 -5 -330 -5 -330
-195 332 -195 333 -53 0 c-33 0 -54 -5 -57 -12z"/>
<path d="M21090 5850 l0 -440 194 0 c119 0 197 4 201 10 3 6 16 10 29 10 13 0
31 9 40 19 10 11 28 22 41 25 13 3 33 22 45 41 12 19 25 35 28 35 6 0 21 44
54 160 11 42 5 244 -10 315 -14 65 -63 157 -91 171 -12 6 -32 20 -44 31 -54
46 -96 55 -314 60 l-173 4 0 -441z m365 310 c3 -5 18 -10 32 -10 30 0 80 -50
90 -89 3 -14 15 -41 25 -59 30 -53 26 -236 -7 -326 -46 -126 -82 -146 -267
-146 l-128 0 0 320 0 320 124 0 c73 0 127 -4 131 -10z"/>
<path d="M22165 6278 c-3 -7 -4 -204 -3 -438 l3 -425 194 -3 c123 -1 198 1
205 8 5 5 19 10 29 10 11 0 32 11 49 25 16 14 35 25 42 25 7 0 21 9 31 19 25
29 75 132 75 158 0 12 5 25 10 28 6 3 10 33 10 65 0 32 5 62 10 65 6 3 10 19
10 35 0 16 -4 32 -10 35 -5 3 -10 35 -10 70 0 35 -4 67 -10 70 -5 3 -10 17
-10 29 0 13 -7 29 -15 36 -8 7 -15 20 -15 30 0 9 -9 25 -20 35 -11 10 -20 24
-20 32 0 7 -6 13 -13 13 -8 0 -23 11 -36 24 -12 12 -41 29 -64 35 -23 7 -56
17 -73 22 -48 14 -364 12 -369 -3z m369 -117 c3 -4 20 -11 38 -15 40 -8 88
-52 88 -81 0 -11 5 -26 12 -33 7 -7 16 -38 20 -70 4 -31 10 -72 14 -90 3 -19
2 -43 -4 -55 -6 -12 -13 -51 -15 -87 -3 -36 -12 -78 -20 -93 -24 -45 -66 -87
-86 -87 -11 0 -23 -4 -26 -10 -4 -6 -62 -10 -141 -10 l-134 0 0 320 0 320 124
0 c69 0 127 -4 130 -9z"/>
<path d="M22960 5849 l0 -440 48 3 47 3 3 193 2 194 73 -5 c39 -3 86 -8 102
-12 32 -8 115 -81 115 -101 0 -6 7 -17 15 -24 8 -7 15 -18 15 -25 0 -7 29 -59
63 -116 l64 -104 61 -3 c40 -2 62 1 62 8 0 6 -30 68 -67 138 -67 128 -143 232
-169 232 -8 0 -14 4 -14 9 0 11 25 21 52 21 11 0 46 26 78 58 66 67 78 103 65
216 -6 62 -8 66 -65 120 -53 51 -62 56 -103 56 -25 0 -49 5 -52 10 -4 6 -82
10 -201 10 l-194 0 0 -441z m442 309 c29 -14 68 -89 67 -129 -1 -39 -32 -81
-79 -106 -39 -21 -56 -23 -187 -23 l-143 0 0 135 0 135 158 0 c105 0 167 -4
184 -12z"/>
<path d="M23945 6278 c-35 -95 -295 -852 -295 -859 0 -5 24 -9 54 -9 l54 0 44
133 45 132 155 3 155 2 54 -132 54 -133 59 -3 c53 -3 58 -1 52 15 -7 18 -289
782 -308 836 -9 25 -14 27 -64 27 -35 0 -56 -5 -59 -12z m85 -204 c0 -12 19
-68 41 -125 23 -57 47 -121 55 -141 l13 -38 -124 0 c-69 0 -125 4 -125 8 0 4
18 57 40 118 22 60 40 123 40 141 0 17 5 35 10 38 6 3 10 19 10 34 0 15 3 31
7 35 9 9 32 -40 33 -70z"/>
<path d="M24460 5850 l0 -440 55 0 55 0 0 195 0 195 178 2 177 3 0 55 0 55
-177 3 -178 2 0 125 0 125 213 2 212 3 0 55 0 55 -267 3 -268 2 0 -440z"/>
<path d="M25060 6230 l0 -60 120 0 120 0 2 -377 3 -378 58 -3 57 -3 0 381 0
380 130 0 130 0 0 60 0 60 -310 0 -310 0 0 -60z"/>
<path d="M25800 5850 l0 -441 48 3 47 3 0 435 0 435 -47 3 -48 3 0 -441z"/>
<path d="M26080 5850 l0 -441 48 3 47 3 5 323 5 322 195 -322 196 -323 57 -3
57 -3 0 441 0 441 -47 -3 -48 -3 -5 -331 -5 -332 -195 332 -195 331 -58 3 -57
3 0 -441z"/>
<path d="M27105 6280 c-3 -5 -14 -10 -24 -10 -83 0 -221 -167 -221 -267 0 -12
-4 -25 -10 -28 -6 -4 -10 -60 -10 -135 0 -75 4 -131 10 -135 6 -3 10 -18 10
-32 0 -28 25 -88 48 -116 9 -9 20 -27 26 -39 16 -31 90 -73 179 -102 64 -21
198 -21 245 0 99 43 130 60 160 88 l32 30 0 163 0 163 -160 0 -160 0 0 -55 0
-55 105 0 105 0 0 -90 c0 -78 -3 -91 -17 -96 -10 -3 -31 -12 -46 -20 -16 -7
-39 -14 -52 -14 -13 0 -27 -4 -30 -10 -3 -5 -35 -10 -70 -10 -35 0 -67 5 -70
10 -3 6 -19 10 -35 10 -16 0 -32 5 -35 11 -4 5 -18 14 -31 19 -13 5 -29 21
-34 34 -5 13 -14 27 -19 31 -6 3 -11 15 -11 26 0 10 -4 19 -10 19 -5 0 -10 9
-10 19 0 11 -4 23 -10 26 -6 4 -10 60 -10 135 0 75 4 131 10 135 6 3 10 15 10
26 0 12 16 40 35 63 19 24 35 47 35 52 1 11 70 44 93 44 9 0 19 5 22 10 9 15
118 12 156 -4 55 -23 129 -116 129 -163 0 -7 4 -13 8 -13 13 0 102 31 102 36
0 3 -6 18 -44 104 -20 47 -69 95 -125 123 -50 24 -66 27 -163 27 -60 0 -110
-4 -113 -10z"/>
<path d="M28305 6278 c-3 -7 -4 -204 -3 -438 l3 -425 243 -3 242 -2 0 60 0 60
-195 0 -195 0 0 380 0 380 -45 0 c-27 0 -48 -5 -50 -12z"/>
<path d="M28905 6278 c-3 -7 -4 -204 -3 -438 l3 -425 243 -3 242 -2 0 60 0 60
-185 0 -185 0 -2 378 -3 377 -53 3 c-36 2 -54 -1 -57 -10z"/>
<path d="M29710 6270 c-14 -11 -34 -20 -46 -20 -21 0 -74 -48 -74 -66 0 -6
-11 -21 -25 -34 -14 -13 -25 -29 -25 -35 0 -7 -9 -20 -20 -30 -14 -12 -21 -37
-26 -86 -4 -38 -11 -72 -15 -75 -12 -7 -12 -121 0 -128 4 -3 11 -37 15 -76 3
-39 10 -78 15 -88 5 -9 15 -31 23 -49 18 -41 101 -129 147 -156 31 -18 53 -21
152 -21 102 -1 120 2 161 23 70 36 148 144 164 226 6 31 4 33 -42 49 -61 21
-64 20 -64 -7 0 -41 -38 -103 -89 -146 -48 -40 -50 -41 -125 -41 -110 0 -172
39 -205 130 -7 19 -17 44 -21 55 -33 79 -28 246 9 330 10 22 23 52 30 68 6 15
17 27 24 27 8 0 22 9 32 20 49 54 152 67 225 28 47 -26 100 -86 100 -115 0
-34 17 -41 70 -30 28 5 50 15 50 21 0 22 -27 86 -43 104 -9 10 -17 23 -17 29
0 12 -43 53 -57 53 -6 0 -16 7 -23 15 -28 34 -72 45 -174 45 -85 0 -105 -4
-126 -20z"/>
<path d="M27704 5537 c-3 -8 -4 -39 -2 -68 3 -51 5 -54 31 -57 24 -3 27 -7 27
-42 0 -30 -6 -43 -26 -59 -26 -20 -26 -21 -9 -47 l17 -27 39 39 c23 24 38 49
39 65 0 14 5 30 10 35 6 6 10 44 8 90 l-3 79 -63 3 c-47 2 -64 -1 -68 -11z"/>
</g>
</svg>
